G04 DesignSpark PCB Gerber Version 9.0 Build 5138 *
G04 #@! TF.Part,Single*
G04 #@! TF.FileFunction,Legend,Top *
G04 #@! TF.FilePolarity,Positive *
%FSLAX35Y35*%
%MOIN*%
%ADD10C,0.00500*%
X0Y0D02*
D02*
D10*
X35756Y519019D02*
X57646D01*
Y467129*
X35756*
Y491106*
X37725*
Y495043*
X35756*
Y519019*
X40139Y491824D02*
X43889D01*
Y489637*
X43576Y489011*
X42951Y488699*
X42326Y489011*
X42014Y489637*
Y491824*
Y489637D02*
X40139Y488699D01*
X40451Y486511D02*
X40139Y485887D01*
Y485261*
X40451Y484637*
X41076Y484324*
X41701Y484637*
X42014Y485261*
Y485887*
Y485261D02*
X42326Y484637D01*
X42951Y484324*
X43576Y484637*
X43889Y485261*
Y485887*
X43576Y486511*
X40451Y525261D02*
Y522449D01*
X40764Y521824*
X41389Y521511*
X42639*
X43264Y521824*
X43576Y522449*
Y525261*
X47014Y521511D02*
Y525261D01*
X45451Y522761*
X47951*
X41500Y212761D02*
Y216511D01*
X43687*
X44313Y216199*
X44625Y215574*
X44313Y214949*
X43687Y214637*
X41500*
X43687D02*
X44625Y212761D01*
X46500Y213074D02*
X47125Y212761D01*
X48063*
X48687Y213074*
X49000Y213699*
Y214011*
X48687Y214637*
X48063Y214949*
X46500*
Y216511*
X49000*
X45702Y312740D02*
X45389Y312428D01*
X44764Y312115*
X43827*
X43202Y312428*
X42889Y312740*
X42577Y313365*
Y314615*
X42889Y315240*
X43202Y315553*
X43827Y315865*
X44764*
X45389Y315553*
X45702Y315240*
X47577Y313365D02*
Y314615D01*
X47889Y315240*
X48202Y315553*
X48827Y315865*
X49452*
X50077Y315553*
X50389Y315240*
X50702Y314615*
Y313365*
X50389Y312740*
X50077Y312428*
X49452Y312115*
X48827*
X48202Y312428*
X47889Y312740*
X47577Y313365*
X52577Y312115D02*
Y315865D01*
X55702Y312115*
Y315865*
X57577Y312115D02*
Y315865D01*
X60702Y312115*
Y315865*
X63202Y312115D02*
X64452D01*
X63827D02*
Y315865D01*
X63202Y315240*
X44077Y307178D02*
X135827D01*
Y275428*
X44077*
Y307178*
X44606Y98710D02*
X68228D01*
Y134143*
X44606*
Y98710*
X48327Y276428D02*
G75*
G03X51327Y271678I1500J-2375D01*
G01*
G75*
G03X48327Y276428I-1500J2375*
G01*
G36*
G75*
G03X51327Y271678I1500J-2375*
G01*
G75*
G03X48327Y276428I-1500J2375*
G01*
G37*
X50245Y139913D02*
Y137101D01*
X50558Y136476*
X51183Y136163*
X52433*
X53058Y136476*
X53370Y137101*
Y139913*
X55245Y137101D02*
X55558Y137726D01*
X56183Y138039*
X56808*
X57433Y137726*
X57745Y137101*
X57433Y136476*
X56808Y136163*
X56183*
X55558Y136476*
X55245Y137101*
Y138039*
X55558Y138976*
X56183Y139601*
X56808Y139913*
X51500Y192761D02*
Y189949D01*
X51813Y189324*
X52437Y189011*
X53687*
X54313Y189324*
X54625Y189949*
Y192761*
X56500Y189324D02*
X57125Y189011D01*
X58063*
X58687Y189324*
X59000Y189949*
Y190261*
X58687Y190887*
X58063Y191199*
X56500*
Y192761*
X59000*
X55563Y236199D02*
X55250Y236511D01*
X54937Y237137*
Y238074*
X55250Y238699*
X55563Y239011*
X56187Y239324*
X57437*
X58063Y239011*
X58375Y238699*
X58687Y238074*
Y237137*
X58375Y236511*
X58063Y236199*
X54937Y233699D02*
Y232449D01*
Y233074D02*
X58687D01*
X58063Y233699*
X55250Y229011D02*
X54937Y228387D01*
Y227761*
X55250Y227137*
X55875Y226824*
X56500Y227137*
X56813Y227761*
Y228387*
Y227761D02*
X57125Y227137D01*
X57750Y226824*
X58375Y227137*
X58687Y227761*
Y228387*
X58375Y229011*
X55756Y519019D02*
X77646D01*
Y467129*
X55756*
Y491106*
X57725*
Y495043*
X55756*
Y519019*
X57701Y519074D02*
Y447074D01*
X45701*
Y516574*
X48201Y519074*
X57701*
X60139Y491824D02*
X63889D01*
Y489637*
X63576Y489011*
X62951Y488699*
X62326Y489011*
X62014Y489637*
Y491824*
Y489637D02*
X60139Y488699D01*
Y485261D02*
X63889D01*
X61389Y486824*
Y484324*
X59201Y525261D02*
Y522449D01*
X59514Y521824*
X60139Y521511*
X61389*
X62014Y521824*
X62326Y522449*
Y525261*
X64201Y521511D02*
X66701Y525261D01*
X64201*
X65500Y194074D02*
Y209074D01*
X51500*
Y194074*
X65400*
X68063Y168699D02*
X67750Y169011D01*
X67437Y169637*
Y170574*
X67750Y171199*
X68063Y171511*
X68687Y171824*
X69937*
X70563Y171511*
X70875Y171199*
X71187Y170574*
Y169637*
X70875Y169011*
X70563Y168699*
X67437Y166199D02*
Y164949D01*
Y165574D02*
X71187D01*
X70563Y166199*
X67750Y161824D02*
X67437Y161199D01*
Y160261*
X67750Y159637*
X68375Y159324*
X68687*
X69313Y159637*
X69625Y160261*
Y161824*
X71187*
Y159324*
X67000Y224574D02*
Y240574D01*
X60000*
Y224574*
X67000*
X68500Y202574D02*
X84500D01*
Y209574*
X68500*
Y202574*
X71500Y257761D02*
Y254949D01*
X71813Y254324*
X72437Y254011*
X73687*
X74313Y254324*
X74625Y254949*
Y257761*
X77437Y255887D02*
X78063D01*
X78687Y256199*
X79000Y256824*
X78687Y257449*
X78063Y257761*
X77437*
X76813Y257449*
X76500Y256824*
X76813Y256199*
X77437Y255887*
X76813Y255574*
X76500Y254949*
X76813Y254324*
X77437Y254011*
X78063*
X78687Y254324*
X79000Y254949*
X78687Y255574*
X78063Y255887*
X72000Y218574D02*
X56000D01*
Y211574*
X72000*
Y218574*
X74328Y351522D02*
Y422522D01*
X115328*
Y351522*
X97328*
Y354022*
X92328*
Y351522*
X74328*
X74606Y98710D02*
X98228D01*
Y134143*
X74606*
Y98710*
X75756Y519019D02*
X97646D01*
Y467129*
X75756*
Y491106*
X77725*
Y495043*
X75756*
Y519019*
X76500Y210261D02*
Y214011D01*
X78687*
X79313Y213699*
X79625Y213074*
X79313Y212449*
X78687Y212137*
X76500*
X78687D02*
X79625Y210261D01*
X81500Y211199D02*
X81813Y211824D01*
X82437Y212137*
X83063*
X83687Y211824*
X84000Y211199*
X83687Y210574*
X83063Y210261*
X82437*
X81813Y210574*
X81500Y211199*
Y212137*
X81813Y213074*
X82437Y213699*
X83063Y214011*
X77701Y519074D02*
Y447074D01*
X65701*
Y516574*
X68201Y519074*
X77701*
X80139Y491824D02*
X83889D01*
Y489637*
X83576Y489011*
X82951Y488699*
X82326Y489011*
X82014Y489637*
Y491824*
Y489637D02*
X80139Y488699D01*
X82014Y485887D02*
Y485261D01*
X82326Y484637*
X82951Y484324*
X83576Y484637*
X83889Y485261*
Y485887*
X83576Y486511*
X82951Y486824*
X82326Y486511*
X82014Y485887*
X81701Y486511*
X81076Y486824*
X80451Y486511*
X80139Y485887*
Y485261*
X80451Y484637*
X81076Y484324*
X81701Y484637*
X82014Y485261*
X79201Y525261D02*
Y522449D01*
X79514Y521824*
X80139Y521511*
X81389*
X82014Y521824*
X82326Y522449*
Y525261*
X85139Y521511D02*
X85764Y521824D01*
X86389Y522449*
X86701Y523387*
Y524324*
X86389Y524949*
X85764Y525261*
X85139*
X84514Y524949*
X84201Y524324*
X84514Y523699*
X85139Y523387*
X85764*
X86389Y523699*
X86701Y524324*
X79500Y158074D02*
Y174074D01*
X72500*
Y158074*
X79500*
X80245Y139913D02*
Y137101D01*
X80558Y136476*
X81183Y136163*
X82433*
X83058Y136476*
X83370Y137101*
Y139913*
X85870Y136163D02*
X87120D01*
X86495D02*
Y139913D01*
X85870Y139289*
X90558Y136476D02*
X91183Y136163D01*
X91808*
X92433Y136476*
X92745Y137101*
Y138976*
X92433Y139601*
X91808Y139913*
X91183*
X90558Y139601*
X90245Y138976*
Y137101*
X90558Y136476*
X92433Y139601*
X84744Y164712D02*
Y204436D01*
X115256*
Y164712*
X101476*
Y166188*
X98524*
Y164712*
X84744*
X88941Y223133D02*
X69059D01*
Y253015*
X88941*
Y239550*
X87465*
Y236598*
X88941*
Y223133*
X91078Y349210D02*
Y346398D01*
X91391Y345772*
X92016Y345460*
X93266*
X93891Y345772*
X94204Y346398*
Y349210*
X96704Y345460D02*
X97954D01*
X97328D02*
Y349210D01*
X96704Y348585*
X101704Y345460D02*
X102954D01*
X102328D02*
Y349210D01*
X101704Y348585*
X94000Y162761D02*
Y159949D01*
X94313Y159324*
X94937Y159011*
X96187*
X96813Y159324*
X97125Y159949*
Y162761*
X99625Y159011D02*
X100875D01*
X100250D02*
Y162761D01*
X99625Y162137*
X106500Y159011D02*
X104000D01*
X106187Y161199*
X106500Y161824*
X106187Y162449*
X105563Y162761*
X104625*
X104000Y162449*
X95756Y519019D02*
X117646D01*
Y467129*
X95756*
Y491106*
X97725*
Y495043*
X95756*
Y519019*
X97701Y519074D02*
Y447074D01*
X85701*
Y516574*
X88201Y519074*
X97701*
X98000Y236074D02*
Y252074D01*
X91000*
Y236074*
X98000*
X100139Y491824D02*
X103889D01*
Y489637*
X103576Y489011*
X102951Y488699*
X102326Y489011*
X102014Y489637*
Y491824*
Y489637D02*
X100139Y488699D01*
Y485887D02*
X100451Y485261D01*
X101076Y484637*
X102014Y484324*
X102951*
X103576Y484637*
X103889Y485261*
Y485887*
X103576Y486511*
X102951Y486824*
X102326Y486511*
X102014Y485887*
Y485261*
X102326Y484637*
X102951Y484324*
X101063Y247449D02*
X100750Y247761D01*
X100437Y248387*
Y249324*
X100750Y249949*
X101063Y250261*
X101687Y250574*
X102937*
X103563Y250261*
X103875Y249949*
X104187Y249324*
Y248387*
X103875Y247761*
X103563Y247449*
X100437Y244949D02*
Y243699D01*
Y244324D02*
X104187D01*
X103563Y244949*
X101375Y240574D02*
X102000Y240261D01*
X102313Y239637*
Y239011*
X102000Y238387*
X101375Y238074*
X100750Y238387*
X100437Y239011*
Y239637*
X100750Y240261*
X101375Y240574*
X102313*
X103250Y240261*
X103875Y239637*
X104187Y239011*
X100451Y525261D02*
Y522449D01*
X100764Y521824*
X101389Y521511*
X102639*
X103264Y521824*
X103576Y522449*
Y525261*
X106076Y521511D02*
X107326D01*
X106701D02*
Y525261D01*
X106076Y524637*
X110764Y521824D02*
X111389Y521511D01*
X112014*
X112639Y521824*
X112951Y522449*
X112639Y523074*
X112014Y523387*
X111389*
X112014D02*
X112639Y523699D01*
X112951Y524324*
X112639Y524949*
X112014Y525261*
X111389*
X110764Y524949*
X105563Y232449D02*
X105250Y232761D01*
X104937Y233387*
Y234324*
X105250Y234949*
X105563Y235261*
X106187Y235574*
X107437*
X108063Y235261*
X108375Y234949*
X108687Y234324*
Y233387*
X108375Y232761*
X108063Y232449*
X104937Y229949D02*
Y228699D01*
Y229324D02*
X108687D01*
X108063Y229949*
X104937Y225574D02*
X108687Y223074D01*
Y225574*
X104606Y98710D02*
X128228D01*
Y134143*
X104606*
Y98710*
X110245Y139913D02*
Y137101D01*
X110558Y136476*
X111183Y136163*
X112433*
X113058Y136476*
X113370Y137101*
Y139913*
X115870Y136163D02*
X117120D01*
X116495D02*
Y139913D01*
X115870Y139289*
X121808Y136163D02*
Y139913D01*
X120245Y137413*
X122745*
X116625Y528387D02*
X116313Y528074D01*
X115687Y527761*
X114750*
X114125Y528074*
X113813Y528387*
X113500Y529011*
Y530261*
X113813Y530887*
X114125Y531199*
X114750Y531511*
X115687*
X116313Y531199*
X116625Y530887*
X118500Y529011D02*
Y530261D01*
X118813Y530887*
X119125Y531199*
X119750Y531511*
X120375*
X121000Y531199*
X121313Y530887*
X121625Y530261*
Y529011*
X121313Y528387*
X121000Y528074*
X120375Y527761*
X119750*
X119125Y528074*
X118813Y528387*
X118500Y529011*
X123500Y527761D02*
Y531511D01*
X126625Y527761*
Y531511*
X128500Y527761D02*
Y531511D01*
X131625Y527761*
Y531511*
X136000Y527761D02*
X133500D01*
X135687Y529949*
X136000Y530574*
X135687Y531199*
X135063Y531511*
X134125*
X133500Y531199*
X117000Y221074D02*
Y237074D01*
X110000*
Y221074*
X117000*
X117701Y519074D02*
Y447074D01*
X105701*
Y516574*
X108201Y519074*
X117701*
X119000Y175074D02*
Y159074D01*
X126000*
Y175074*
X119000*
X123063Y154949D02*
X122750Y155261D01*
X122437Y155887*
Y156824*
X122750Y157449*
X123063Y157761*
X123687Y158074*
X124937*
X125563Y157761*
X125875Y157449*
X126187Y156824*
Y155887*
X125875Y155261*
X125563Y154949*
X122437Y152449D02*
Y151199D01*
Y151824D02*
X126187D01*
X125563Y152449*
X124313Y147137D02*
Y146511D01*
X124625Y145887*
X125250Y145574*
X125875Y145887*
X126187Y146511*
Y147137*
X125875Y147761*
X125250Y148074*
X124625Y147761*
X124313Y147137*
X124000Y147761*
X123375Y148074*
X122750Y147761*
X122437Y147137*
Y146511*
X122750Y145887*
X123375Y145574*
X124000Y145887*
X124313Y146511*
X121500Y184074D02*
X137500D01*
Y191074*
X121500*
Y184074*
Y191574D02*
X137500D01*
Y198574*
X121500*
Y191574*
X122209Y509767D02*
X135791D01*
Y496381*
X122209*
Y509767*
X125875Y200887D02*
X125563Y200574D01*
X124937Y200261*
X124000*
X123375Y200574*
X123063Y200887*
X122750Y201511*
Y202761*
X123063Y203387*
X123375Y203699*
X124000Y204011*
X124937*
X125563Y203699*
X125875Y203387*
X128375Y200261D02*
X129625D01*
X129000D02*
Y204011D01*
X128375Y203387*
X133687Y200261D02*
X134313Y200574D01*
X134937Y201199*
X135250Y202137*
Y203074*
X134937Y203699*
X134313Y204011*
X133687*
X133063Y203699*
X132750Y203074*
X133063Y202449*
X133687Y202137*
X134313*
X134937Y202449*
X135250Y203074*
X124000Y511511D02*
Y515261D01*
X127125*
X126500Y513387D02*
X124000D01*
X131187D02*
X131813Y513074D01*
X132125Y512449*
X131813Y511824*
X131187Y511511*
X129000*
Y515261*
X131187*
X131813Y514949*
X132125Y514324*
X131813Y513699*
X131187Y513387*
X129000*
X134313Y511824D02*
X134937Y511511D01*
X135563*
X136187Y511824*
X136500Y512449*
X136187Y513074*
X135563Y513387*
X134937*
X135563D02*
X136187Y513699D01*
X136500Y514324*
X136187Y514949*
X135563Y515261*
X134937*
X134313Y514949*
X126500Y221511D02*
Y218699D01*
X126813Y218074*
X127437Y217761*
X128687*
X129313Y218074*
X129625Y218699*
Y221511*
X132125Y217761D02*
X133375D01*
X132750D02*
Y221511D01*
X132125Y220887*
X136500Y218074D02*
X137125Y217761D01*
X138063*
X138687Y218074*
X139000Y218699*
Y219011*
X138687Y219637*
X138063Y219949*
X136500*
Y221511*
X139000*
X127500Y180074D02*
Y164074D01*
X134500*
Y180074*
X127500*
X134606Y98710D02*
X158228D01*
Y134143*
X134606*
Y98710*
X135561Y412639D02*
G75*
G03X182805I23622D01*
G01*
G75*
G03X135561I-23622*
G01*
X138063Y173699D02*
X137750Y174011D01*
X137437Y174637*
Y175574*
X137750Y176199*
X138063Y176511*
X138687Y176824*
X139937*
X140563Y176511*
X140875Y176199*
X141187Y175574*
Y174637*
X140875Y174011*
X140563Y173699*
X137437Y169324D02*
Y171824D01*
X139625Y169637*
X140250Y169324*
X140875Y169637*
X141187Y170261*
Y171199*
X140875Y171824*
X137437Y166199D02*
Y164949D01*
Y165574D02*
X141187D01*
X140563Y166199*
X137500Y415074D02*
X141500D01*
X139500Y413074D02*
Y417074D01*
X138941Y223133D02*
X119059D01*
Y253015*
X138941*
Y239550*
X137465*
Y236598*
X138941*
Y223133*
X142125Y185887D02*
X141813Y185574D01*
X141187Y185261*
X140250*
X139625Y185574*
X139313Y185887*
X139000Y186511*
Y187761*
X139313Y188387*
X139625Y188699*
X140250Y189011*
X141187*
X141813Y188699*
X142125Y188387*
X146500Y185261D02*
X144000D01*
X146187Y187449*
X146500Y188074*
X146187Y188699*
X145563Y189011*
X144625*
X144000Y188699*
X149313Y185574D02*
X149937Y185261D01*
X150563*
X151187Y185574*
X151500Y186199*
Y188074*
X151187Y188699*
X150563Y189011*
X149937*
X149313Y188699*
X149000Y188074*
Y186199*
X149313Y185574*
X151187Y188699*
X140245Y139913D02*
Y137101D01*
X140558Y136476*
X141183Y136163*
X142433*
X143058Y136476*
X143370Y137101*
Y139913*
X145870Y136163D02*
X147120D01*
X146495D02*
Y139913D01*
X145870Y139289*
X150245Y137101D02*
X150558Y137726D01*
X151183Y138039*
X151808*
X152433Y137726*
X152745Y137101*
X152433Y136476*
X151808Y136163*
X151183*
X150558Y136476*
X150245Y137101*
Y138039*
X150558Y138976*
X151183Y139601*
X151808Y139913*
X140500Y477865D02*
X167500D01*
Y509865*
X140500*
Y477865*
X142750Y457011D02*
Y460761D01*
X144937*
X145563Y460449*
X145875Y459824*
X145563Y459199*
X144937Y458887*
X142750*
X144937D02*
X145875Y457011D01*
X148375D02*
X149625D01*
X149000D02*
Y460761D01*
X148375Y460137*
X153063Y457324D02*
X153687Y457011D01*
X154313*
X154937Y457324*
X155250Y457949*
Y459824*
X154937Y460449*
X154313Y460761*
X153687*
X153063Y460449*
X152750Y459824*
Y457949*
X153063Y457324*
X154937Y460449*
X144500Y513303D02*
Y517053D01*
X146687*
X147313Y516741*
X147625Y516115*
X147313Y515491*
X146687Y515178*
X144500*
X146687D02*
X147625Y513303D01*
X150125D02*
X151375D01*
X150750D02*
Y517053D01*
X150125Y516428*
X155125Y513303D02*
X156375D01*
X155750D02*
Y517053D01*
X155125Y516428*
X147852Y290055D02*
X151602D01*
Y287868*
X151289Y287243*
X150664Y286930*
X150039Y287243*
X149727Y287868*
Y290055*
Y287868D02*
X147852Y286930D01*
Y284430D02*
Y283180D01*
Y283805D02*
X151602D01*
X150977Y284430*
X147852Y277555D02*
Y280055D01*
X150039Y277868*
X150664Y277555*
X151289Y277868*
X151602Y278493*
Y279430*
X151289Y280055*
X147936Y236074D02*
Y252074D01*
X140936*
Y236074*
X147936*
X150998Y246199D02*
X150686Y246511D01*
X150373Y247137*
Y248074*
X150686Y248699*
X150998Y249011*
X151623Y249324*
X152873*
X153498Y249011*
X153811Y248699*
X154123Y248074*
Y247137*
X153811Y246511*
X153498Y246199*
X150373Y241824D02*
Y244324D01*
X152561Y242137*
X153186Y241824*
X153811Y242137*
X154123Y242761*
Y243699*
X153811Y244324*
X150686Y239324D02*
X150373Y238699D01*
Y237761*
X150686Y237137*
X151311Y236824*
X151623*
X152248Y237137*
X152561Y237761*
Y239324*
X154123*
Y236824*
X157500Y521574D02*
Y527574D01*
X161000*
X162000Y527074*
X162500Y526074*
X162000Y525074*
X161000Y524574*
X157500*
X161000D02*
X162500Y521574D01*
X165500D02*
X169500Y525574D01*
Y521574D02*
X165500Y525574D01*
X157750Y447761D02*
Y451511D01*
X159937*
X160563Y451199*
X160875Y450574*
X160563Y449949*
X159937Y449637*
X157750*
X159937D02*
X160875Y447761D01*
X163375D02*
X164625D01*
X164000D02*
Y451511D01*
X163375Y450887*
X168063Y448074D02*
X168687Y447761D01*
X169313*
X169937Y448074*
X170250Y448699*
X169937Y449324*
X169313Y449637*
X168687*
X169313D02*
X169937Y449949D01*
X170250Y450574*
X169937Y451199*
X169313Y451511*
X168687*
X168063Y451199*
X159000Y473074D02*
Y463074D01*
X139000*
Y473074*
X159000*
X169000*
Y453074*
X159000*
Y473074*
X160809Y275305D02*
Y291305D01*
X153809*
Y275305*
X160809*
X162437Y209324D02*
X166187D01*
Y207137*
X165875Y206511*
X165250Y206199*
X164625Y206511*
X164313Y207137*
Y209324*
Y207137D02*
X162437Y206199D01*
Y203699D02*
Y202449D01*
Y203074D02*
X166187D01*
X165563Y203699*
X162437Y197761D02*
X166187D01*
X163687Y199324*
Y196824*
X164606Y98710D02*
X188228D01*
Y134143*
X164606*
Y98710*
X161367Y273308D02*
X165117D01*
Y276433*
Y278933D02*
Y280183D01*
Y279558D02*
X161367D01*
X161991Y278933*
X168000Y211074D02*
Y195074D01*
X175000*
Y211074*
X168000*
X168181Y170976D02*
X187819D01*
Y178172*
X168181*
Y170976*
X169000Y179011D02*
Y182761D01*
X170875*
X171500Y182449*
X171813Y182137*
X172125Y181511*
Y180261*
X171813Y179637*
X171500Y179324*
X170875Y179011*
X169000*
X174625D02*
X175875D01*
X175250D02*
Y182761D01*
X174625Y182137*
X169000Y436199D02*
X169313Y435574D01*
X169937Y435261*
X171187*
X171813Y435574*
X172125Y436199*
X171813Y436824*
X171187Y437137*
X169937*
X169313Y437449*
X169000Y438074*
X169313Y438699*
X169937Y439011*
X171187*
X171813Y438699*
X172125Y438074*
X174000Y435261D02*
Y439011D01*
X176187*
X176813Y438699*
X177125Y438074*
X176813Y437449*
X176187Y437137*
X174000*
X179625Y435261D02*
X180875D01*
X180250D02*
Y439011D01*
X179625Y438387*
X169837Y172505D02*
G75*
G03X172896I1530D01*
G01*
G75*
G03X169837I-1530*
G01*
G36*
G75*
G03X172896I1530*
G01*
G75*
G03X169837I-1530*
G01*
G37*
X170245Y139913D02*
Y137101D01*
X170558Y136476*
X171183Y136163*
X172433*
X173058Y136476*
X173370Y137101*
Y139913*
X175870Y136163D02*
X177120D01*
X176495D02*
Y139913D01*
X175870Y139289*
X181183Y138039D02*
X181808D01*
X182433Y138351*
X182745Y138976*
X182433Y139601*
X181808Y139913*
X181183*
X180558Y139601*
X180245Y138976*
X180558Y138351*
X181183Y138039*
X180558Y137726*
X180245Y137101*
X180558Y136476*
X181183Y136163*
X181808*
X182433Y136476*
X182745Y137101*
X182433Y137726*
X181808Y138039*
X171925Y477865D02*
X198925D01*
Y509865*
X171925*
Y477865*
X172680Y456920D02*
Y460670D01*
X174868*
X175493Y460357*
X175806Y459732*
X175493Y459107*
X174868Y458795*
X172680*
X174868D02*
X175806Y456920D01*
X178306D02*
X179556D01*
X178930D02*
Y460670D01*
X178306Y460045*
X182680Y457232D02*
X183306Y456920D01*
X184243*
X184868Y457232*
X185180Y457857*
Y458170*
X184868Y458795*
X184243Y459107*
X182680*
Y460670*
X185180*
X175925Y513303D02*
Y517053D01*
X178112*
X178737Y516741*
X179050Y516115*
X178737Y515491*
X178112Y515178*
X175925*
X178112D02*
X179050Y513303D01*
X181550D02*
X182800D01*
X182175D02*
Y517053D01*
X181550Y516428*
X185925Y514241D02*
X186237Y514865D01*
X186862Y515178*
X187487*
X188112Y514865*
X188425Y514241*
X188112Y513615*
X187487Y513303*
X186862*
X186237Y513615*
X185925Y514241*
Y515178*
X186237Y516115*
X186862Y516741*
X187487Y517053*
X180000Y211074D02*
Y195074D01*
X187000*
Y211074*
X180000*
X189313Y206199D02*
X189000Y206511D01*
X188687Y207137*
Y208074*
X189000Y208699*
X189313Y209011*
X189937Y209324*
X191187*
X191813Y209011*
X192125Y208699*
X192437Y208074*
Y207137*
X192125Y206511*
X191813Y206199*
X188687Y201824D02*
Y204324D01*
X190875Y202137*
X191500Y201824*
X192125Y202137*
X192437Y202761*
Y203699*
X192125Y204324*
X189625Y199324D02*
X190250Y199011D01*
X190563Y198387*
Y197761*
X190250Y197137*
X189625Y196824*
X189000Y197137*
X188687Y197761*
Y198387*
X189000Y199011*
X189625Y199324*
X190563*
X191500Y199011*
X192125Y198387*
X192437Y197761*
X188370Y261192D02*
Y215353D01*
X164404*
Y260969*
X164627Y261192*
X188370*
X183859Y345785D02*
X187609D01*
Y348910*
Y353285D02*
Y350785D01*
X185422Y352972*
X184797Y353285*
X184172Y352972*
X183859Y352348*
Y351410*
X184172Y350785*
X192000Y520574D02*
Y526574D01*
X189500D02*
X194500D01*
X197500Y520574D02*
X201500Y524574D01*
Y520574D02*
X197500Y524574D01*
X190272Y581936D02*
Y532724D01*
X35941*
Y581936*
X195556Y259942D02*
X192744D01*
X192119Y259630*
X191806Y259005*
Y257755*
X192119Y257130*
X192744Y256817*
X195556*
X191806Y254317D02*
Y253067D01*
Y253692D02*
X195556D01*
X194931Y254317*
X191806Y249942D02*
X195556Y247442D01*
Y249942*
X190930Y472482D02*
Y462482D01*
X170930*
Y472482*
X190930*
X193546Y471368D02*
X203546D01*
Y451368*
X193546*
Y471368*
X201813Y552449D02*
X201500Y552761D01*
X201187Y553387*
Y554324*
X201500Y554949*
X201813Y555261*
X202437Y555574*
X203687*
X204313Y555261*
X204625Y554949*
X204937Y554324*
Y553387*
X204625Y552761*
X204313Y552449*
X202437Y550574D02*
X203687D01*
X204313Y550261*
X204625Y549949*
X204937Y549324*
Y548699*
X204625Y548074*
X204313Y547761*
X203687Y547449*
X202437*
X201813Y547761*
X201500Y548074*
X201187Y548699*
Y549324*
X201500Y549949*
X201813Y550261*
X202437Y550574*
X201187Y545574D02*
X204937D01*
X201187Y542449*
X204937*
X201187Y540574D02*
X204937D01*
X201187Y537449*
X204937*
X201500Y535261D02*
X201187Y534637D01*
Y534011*
X201500Y533387*
X202125Y533074*
X202750Y533387*
X203063Y534011*
Y534637*
Y534011D02*
X203375Y533387D01*
X204000Y533074*
X204625Y533387*
X204937Y534011*
Y534637*
X204625Y535261*
X206187Y468074D02*
X209937D01*
Y465887*
X209625Y465261*
X209000Y464949*
X208375Y465261*
X208063Y465887*
Y468074*
Y465887D02*
X206187Y464949D01*
Y462449D02*
Y461199D01*
Y461824D02*
X209937D01*
X209313Y462449*
X206187Y458074D02*
X209937Y455574D01*
Y458074*
X231342Y129605D02*
X235092D01*
Y127418*
X234780Y126793*
X234154Y126480*
X233530Y126793*
X233217Y127418*
Y129605*
Y127418D02*
X231342Y126480D01*
Y123980D02*
Y122730D01*
Y123355D02*
X235092D01*
X234467Y123980*
X233217Y118668D02*
Y118043D01*
X233530Y117418*
X234154Y117105*
X234780Y117418*
X235092Y118043*
Y118668*
X234780Y119293*
X234154Y119605*
X233530Y119293*
X233217Y118668*
X232904Y119293*
X232280Y119605*
X231654Y119293*
X231342Y118668*
Y118043*
X231654Y117418*
X232280Y117105*
X232904Y117418*
X233217Y118043*
X243904Y116605D02*
Y132605D01*
X236904*
Y116605*
X243904*
X245880Y445517D02*
Y442705D01*
X246193Y442080*
X246817Y441767*
X248067*
X248693Y442080*
X249005Y442705*
Y445517*
X253380Y441767D02*
X250880D01*
X253067Y443955*
X253380Y444580*
X253067Y445205*
X252443Y445517*
X251505*
X250880Y445205*
X256193Y442080D02*
X256817Y441767D01*
X257443*
X258067Y442080*
X258380Y442705*
X258067Y443330*
X257443Y443643*
X256817*
X257443D02*
X258067Y443955D01*
X258380Y444580*
X258067Y445205*
X257443Y445517*
X256817*
X256193Y445205*
X246904Y132605D02*
Y116605D01*
X253904*
Y132605*
X246904*
X247130Y484133D02*
Y481321D01*
X247443Y480696*
X248067Y480383*
X249317*
X249943Y480696*
X250255Y481321*
Y484133*
X254630Y480383D02*
X252130D01*
X254317Y482571*
X254630Y483196*
X254317Y483821*
X253693Y484133*
X252755*
X252130Y483821*
X259630Y480383D02*
X257130D01*
X259317Y482571*
X259630Y483196*
X259317Y483821*
X258693Y484133*
X257755*
X257130Y483821*
X253554Y269558D02*
Y329558D01*
X168554*
Y269558*
X253554*
X256967Y128353D02*
X256654Y128665D01*
X256342Y129291*
Y130228*
X256654Y130853*
X256967Y131165*
X257592Y131478*
X258842*
X259467Y131165*
X259780Y130853*
X260092Y130228*
Y129291*
X259780Y128665*
X259467Y128353*
X256342Y123978D02*
Y126478D01*
X258530Y124291*
X259154Y123978*
X259780Y124291*
X260092Y124915*
Y125853*
X259780Y126478*
X256342Y121478D02*
X260092Y118978D01*
Y121478*
X261002Y328574D02*
Y312574D01*
X268002*
Y328574*
X261002*
X263064Y338699D02*
X262752Y339011D01*
X262439Y339637*
Y340574*
X262752Y341199*
X263064Y341511*
X263689Y341824*
X264939*
X265564Y341511*
X265877Y341199*
X266189Y340574*
Y339637*
X265877Y339011*
X265564Y338699*
X262439Y334324D02*
Y336824D01*
X264627Y334637*
X265252Y334324*
X265877Y334637*
X266189Y335261*
Y336199*
X265877Y336824*
X264314Y330887D02*
Y330261D01*
X264627Y329637*
X265252Y329324*
X265877Y329637*
X266189Y330261*
Y330887*
X265877Y331511*
X265252Y331824*
X264627Y331511*
X264314Y330887*
X264002Y331511*
X263377Y331824*
X262752Y331511*
X262439Y330887*
Y330261*
X262752Y329637*
X263377Y329324*
X264002Y329637*
X264314Y330261*
X262752Y299011D02*
Y302761D01*
X264939*
X265564Y302449*
X265877Y301824*
X265564Y301199*
X264939Y300887*
X262752*
X264939D02*
X265877Y299011D01*
X270252D02*
X267752D01*
X269939Y301199*
X270252Y301824*
X269939Y302449*
X269314Y302761*
X268377*
X267752Y302449*
X273064Y299324D02*
X273689Y299011D01*
X274314*
X274939Y299324*
X275252Y299949*
Y301824*
X274939Y302449*
X274314Y302761*
X273689*
X273064Y302449*
X272752Y301824*
Y299949*
X273064Y299324*
X274939Y302449*
X265164Y443946D02*
Y409702D01*
X235085*
Y443946*
X248648*
Y442469*
X251601*
Y443946*
X265164*
Y482561D02*
Y448318D01*
X235085*
Y482561*
X248648*
Y481085*
X251601*
Y482561*
X265164*
X270002Y328574D02*
Y312574D01*
X277002*
Y328574*
X270002*
X271189Y341824D02*
X274939D01*
Y339637*
X274627Y339011*
X274002Y338699*
X273377Y339011*
X273064Y339637*
Y341824*
Y339637D02*
X271189Y338699D01*
Y336199D02*
Y334949D01*
Y335574D02*
X274939D01*
X274314Y336199*
X271189Y330887D02*
X271502Y330261D01*
X272127Y329637*
X273064Y329324*
X274002*
X274627Y329637*
X274939Y330261*
Y330887*
X274627Y331511*
X274002Y331824*
X273377Y331511*
X273064Y330887*
Y330261*
X273377Y329637*
X274002Y329324*
X275907Y98675D02*
X313309D01*
Y126234*
X275907*
Y98675*
X276047Y342035D02*
Y402035D01*
X191047*
Y342035*
X276047*
X277002Y310574D02*
X261002D01*
Y303574*
X277002*
Y310574*
X280222Y484757D02*
Y577277D01*
X208371*
Y484757*
X280222*
X284627Y299637D02*
X284314Y299324D01*
X283689Y299011*
X282752*
X282127Y299324*
X281814Y299637*
X281502Y300261*
Y301511*
X281814Y302137*
X282127Y302449*
X282752Y302761*
X283689*
X284314Y302449*
X284627Y302137*
X286814Y299324D02*
X287439Y299011D01*
X288064*
X288689Y299324*
X289002Y299949*
X288689Y300574*
X288064Y300887*
X287439*
X288064D02*
X288689Y301199D01*
X289002Y301824*
X288689Y302449*
X288064Y302761*
X287439*
X286814Y302449*
X291502Y299324D02*
X292127Y299011D01*
X293064*
X293689Y299324*
X294002Y299949*
Y300261*
X293689Y300887*
X293064Y301199*
X291502*
Y302761*
X294002*
X284627Y331137D02*
X284314Y330824D01*
X283689Y330511*
X282752*
X282127Y330824*
X281814Y331137*
X281502Y331761*
Y333011*
X281814Y333637*
X282127Y333949*
X282752Y334261*
X283689*
X284314Y333949*
X284627Y333637*
X286814Y330824D02*
X287439Y330511D01*
X288064*
X288689Y330824*
X289002Y331449*
X288689Y332074*
X288064Y332387*
X287439*
X288064D02*
X288689Y332699D01*
X289002Y333324*
X288689Y333949*
X288064Y334261*
X287439*
X286814Y333949*
X293064Y330511D02*
Y334261D01*
X291502Y331761*
X294002*
X285255Y384637D02*
X284943Y384324D01*
X284317Y384011*
X283380*
X282755Y384324*
X282443Y384637*
X282130Y385261*
Y386511*
X282443Y387137*
X282755Y387449*
X283380Y387761*
X284317*
X284943Y387449*
X285255Y387137*
X287443Y384324D02*
X288067Y384011D01*
X288693*
X289317Y384324*
X289630Y384949*
X289317Y385574*
X288693Y385887*
X288067*
X288693D02*
X289317Y386199D01*
X289630Y386824*
X289317Y387449*
X288693Y387761*
X288067*
X287443Y387449*
X292130Y384011D02*
X294630Y387761D01*
X292130*
X282750Y141511D02*
Y145261D01*
Y143387D02*
X283687D01*
X285875Y145261*
X283687Y143387D02*
X285875Y141511D01*
X289937Y143387D02*
X290563Y143074D01*
X290875Y142449*
X290563Y141824*
X289937Y141511*
X287750*
Y145261*
X289937*
X290563Y144949*
X290875Y144324*
X290563Y143699*
X289937Y143387*
X287750*
X293687Y141511D02*
X294313Y141824D01*
X294937Y142449*
X295250Y143387*
Y144324*
X294937Y144949*
X294313Y145261*
X293687*
X293063Y144949*
X292750Y144324*
X293063Y143699*
X293687Y143387*
X294313*
X294937Y143699*
X295250Y144324*
X298687Y141511D02*
X299937D01*
X299313D02*
Y145261D01*
X298687D02*
X299937D01*
X304313Y141511D02*
Y145261D01*
X302750D02*
X305875D01*
X307750Y141511D02*
Y145261D01*
X310875*
X310250Y143387D02*
X307750D01*
Y141511D02*
X310875D01*
X282750Y135511D02*
Y139261D01*
X284937*
X285563Y138949*
X285875Y138324*
X285563Y137699*
X284937Y137387*
X282750*
X284937D02*
X285875Y135511D01*
X287750Y137699D02*
X288375Y138011D01*
X289313*
X289937Y137699*
X290250Y137074*
Y136137*
X289937Y135824*
X289313Y135511*
X288687*
X288063Y135824*
X287750Y136137*
Y136449*
X288063Y136761*
X288687Y137074*
X289313*
X289937Y136761*
X290250Y136449*
Y136137D02*
Y135511D01*
X295250Y137074D02*
X294937Y137699D01*
X294313Y138011*
X293687*
X293063Y137699*
X292750Y137074*
Y136449*
X293063Y135824*
X293687Y135511*
X294313*
X294937Y135824*
X295250Y136449*
Y135511D02*
Y139261D01*
X299000Y135511D02*
Y138011D01*
Y138949D02*
X302750Y136449*
X303063Y135824D01*
X303687Y135511*
X304313*
X304937Y135824*
X305250Y136449*
Y137074*
X304937Y137699*
X304313Y138011*
X303687*
X303063Y137699*
X302750Y137074*
Y136449*
X313687Y135511D02*
X314937D01*
X314313D02*
Y139261D01*
X313687D02*
X314937D01*
X317750Y135511D02*
Y138011D01*
Y137074D02*
X318063Y137699D01*
X318687Y138011*
X319313*
X319937Y137699*
X320250Y137074*
Y135511*
X323271Y138011D02*
X324729D01*
X324000Y138637D02*
Y135824D01*
X324313Y135511*
X324625*
X324937Y135824*
X330250D02*
X329937Y135511D01*
X329313*
X328687*
X328063Y135824*
X327750Y136449*
Y137387*
X328063Y137699*
X328687Y138011*
X329313*
X329937Y137699*
X330250Y137387*
Y137074*
X329937Y136761*
X329313Y136449*
X328687*
X328063Y136761*
X327750Y137074*
X332750Y135511D02*
Y138011D01*
Y137074D02*
X333063Y137699D01*
X333687Y138011*
X334313*
X334937Y137699*
X339000Y135511D02*
Y138637D01*
X339313Y138949*
X339625*
X339937Y138637*
X338375Y137699D02*
X339625D01*
X342750D02*
X343375Y138011D01*
X344313*
X344937Y137699*
X345250Y137074*
Y136137*
X344937Y135824*
X344313Y135511*
X343687*
X343063Y135824*
X342750Y136137*
Y136449*
X343063Y136761*
X343687Y137074*
X344313*
X344937Y136761*
X345250Y136449*
Y136137D02*
Y135511D01*
X350250Y137699D02*
X349625Y138011D01*
X348687*
X348063Y137699*
X347750Y137074*
Y136449*
X348063Y135824*
X348687Y135511*
X349625*
X350250Y135824*
X355250D02*
X354937Y135511D01*
X354313*
X353687*
X353063Y135824*
X352750Y136449*
Y137387*
X353063Y137699*
X353687Y138011*
X354313*
X354937Y137699*
X355250Y137387*
Y137074*
X354937Y136761*
X354313Y136449*
X353687*
X353063Y136761*
X352750Y137074*
X362750Y135511D02*
Y138011D01*
Y137074D02*
X363063Y137699D01*
X363687Y138011*
X364313*
X364937Y137699*
X370250Y135824D02*
X369937Y135511D01*
X369313*
X368687*
X368063Y135824*
X367750Y136449*
Y137387*
X368063Y137699*
X368687Y138011*
X369313*
X369937Y137699*
X370250Y137387*
Y137074*
X369937Y136761*
X369313Y136449*
X368687*
X368063Y136761*
X367750Y137074*
X372750Y138011D02*
X374000Y135511D01*
X375250Y138011*
X378063Y135824D02*
X378687Y135511D01*
X379313*
X379937Y135824*
X380250Y136449*
Y138324*
X379937Y138949*
X379313Y139261*
X378687*
X378063Y138949*
X377750Y138324*
Y136449*
X378063Y135824*
X379937Y138949*
X286881Y496999D02*
X286568Y497311D01*
X286256Y497937*
Y498874*
X286568Y499499*
X286881Y499811*
X287506Y500124*
X288756*
X289381Y499811*
X289693Y499499*
X290006Y498874*
Y497937*
X289693Y497311*
X289381Y496999*
X286568Y494811D02*
X286256Y494187D01*
Y493561*
X286568Y492937*
X287193Y492624*
X287818Y492937*
X288131Y493561*
Y494187*
Y493561D02*
X288443Y492937D01*
X289068Y492624*
X289693Y492937*
X290006Y493561*
Y494187*
X289693Y494811*
X286256Y489499D02*
Y488249D01*
Y488874D02*
X290006D01*
X289381Y489499*
X288761Y455198D02*
X272761D01*
Y448198*
X288761*
Y455198*
Y462810D02*
X272761D01*
Y455810*
X288761*
Y462810*
X288780Y420263D02*
X272780D01*
Y413263*
X288780*
Y420263*
Y427627D02*
X272780D01*
Y420627*
X288780*
Y427627*
X288880Y435574D02*
X272880D01*
Y428574*
X288880*
Y435574*
Y470574D02*
X272880D01*
Y463574*
X288880*
Y470574*
X289000Y127761D02*
Y131511D01*
X291187*
X291813Y131199*
X292125Y130574*
X291813Y129949*
X291187Y129637*
X289000*
X291187D02*
X292125Y127761D01*
X296500D02*
X294000D01*
X296187Y129949*
X296500Y130574*
X296187Y131199*
X295563Y131511*
X294625*
X294000Y131199*
X299937Y127761D02*
X300563Y128074D01*
X301187Y128699*
X301500Y129637*
Y130574*
X301187Y131199*
X300563Y131511*
X299937*
X299313Y131199*
X299000Y130574*
X299313Y129949*
X299937Y129637*
X300563*
X301187Y129949*
X301500Y130574*
X292125Y368591D02*
X291813Y368279D01*
X291187Y367966*
X290250*
X289625Y368279*
X289313Y368591*
X289000Y369216*
Y370466*
X289313Y371091*
X289625Y371404*
X290250Y371716*
X291187*
X291813Y371404*
X292125Y371091*
X294313Y368279D02*
X294937Y367966D01*
X295563*
X296187Y368279*
X296500Y368904*
X296187Y369529*
X295563Y369841*
X294937*
X295563D02*
X296187Y370154D01*
X296500Y370779*
X296187Y371404*
X295563Y371716*
X294937*
X294313Y371404*
X299937Y369841D02*
X300563D01*
X301187Y370154*
X301500Y370779*
X301187Y371404*
X300563Y371716*
X299937*
X299313Y371404*
X299000Y370779*
X299313Y370154*
X299937Y369841*
X299313Y369529*
X299000Y368904*
X299313Y368279*
X299937Y367966*
X300563*
X301187Y368279*
X301500Y368904*
X301187Y369529*
X300563Y369841*
X290250Y340261D02*
Y344011D01*
X292437*
X293063Y343699*
X293375Y343074*
X293063Y342449*
X292437Y342137*
X290250*
X292437D02*
X293375Y340261D01*
X297750D02*
X295250D01*
X297437Y342449*
X297750Y343074*
X297437Y343699*
X296813Y344011*
X295875*
X295250Y343699*
X300250Y340261D02*
X302750Y344011D01*
X300250*
X290676Y476670D02*
X306676D01*
Y483670*
X290676*
Y476670*
X290880Y414511D02*
Y418261D01*
X293067*
X293693Y417949*
X294005Y417324*
X293693Y416699*
X293067Y416387*
X290880*
X293067D02*
X294005Y414511D01*
X298380D02*
X295880D01*
X298067Y416699*
X298380Y417324*
X298067Y417949*
X297443Y418261*
X296505*
X295880Y417949*
X302443Y414511D02*
Y418261D01*
X300880Y415761*
X303380*
X290880Y422011D02*
Y425761D01*
X293067*
X293693Y425449*
X294005Y424824*
X293693Y424199*
X293067Y423887*
X290880*
X293067D02*
X294005Y422011D01*
X298380D02*
X295880D01*
X298067Y424199*
X298380Y424824*
X298067Y425449*
X297443Y425761*
X296505*
X295880Y425449*
X301193Y422324D02*
X301817Y422011D01*
X302443*
X303067Y422324*
X303380Y422949*
X303067Y423574*
X302443Y423887*
X301817*
X302443D02*
X303067Y424199D01*
X303380Y424824*
X303067Y425449*
X302443Y425761*
X301817*
X301193Y425449*
X294005Y431387D02*
X293693Y431074D01*
X293067Y430761*
X292130*
X291505Y431074*
X291193Y431387*
X290880Y432011*
Y433261*
X291193Y433887*
X291505Y434199*
X292130Y434511*
X293067*
X293693Y434199*
X294005Y433887*
X296193Y431074D02*
X296817Y430761D01*
X297443*
X298067Y431074*
X298380Y431699*
X298067Y432324*
X297443Y432637*
X296817*
X297443D02*
X298067Y432949D01*
X298380Y433574*
X298067Y434199*
X297443Y434511*
X296817*
X296193Y434199*
X301193Y431074D02*
X301817Y430761D01*
X302443*
X303067Y431074*
X303380Y431699*
Y433574*
X303067Y434199*
X302443Y434511*
X301817*
X301193Y434199*
X300880Y433574*
Y431699*
X301193Y431074*
X303067Y434199*
X290880Y450261D02*
Y454011D01*
X293067*
X293693Y453699*
X294005Y453074*
X293693Y452449*
X293067Y452137*
X290880*
X293067D02*
X294005Y450261D01*
X298380D02*
X295880D01*
X298067Y452449*
X298380Y453074*
X298067Y453699*
X297443Y454011*
X296505*
X295880Y453699*
X303380Y450261D02*
X300880D01*
X303067Y452449*
X303380Y453074*
X303067Y453699*
X302443Y454011*
X301505*
X300880Y453699*
X290880Y457761D02*
Y461511D01*
X293067*
X293693Y461199*
X294005Y460574*
X293693Y459949*
X293067Y459637*
X290880*
X293067D02*
X294005Y457761D01*
X298380D02*
X295880D01*
X298067Y459949*
X298380Y460574*
X298067Y461199*
X297443Y461511*
X296505*
X295880Y461199*
X301505Y457761D02*
X302755D01*
X302130D02*
Y461511D01*
X301505Y460887*
X294005Y465887D02*
X293693Y465574D01*
X293067Y465261*
X292130*
X291505Y465574*
X291193Y465887*
X290880Y466511*
Y467761*
X291193Y468387*
X291505Y468699*
X292130Y469011*
X293067*
X293693Y468699*
X294005Y468387*
X298380Y465261D02*
X295880D01*
X298067Y467449*
X298380Y468074*
X298067Y468699*
X297443Y469011*
X296505*
X295880Y468699*
X301817Y465261D02*
X302443Y465574D01*
X303067Y466199*
X303380Y467137*
Y468074*
X303067Y468699*
X302443Y469011*
X301817*
X301193Y468699*
X300880Y468074*
X301193Y467449*
X301817Y467137*
X302443*
X303067Y467449*
X303380Y468074*
X291880Y373074D02*
X307880D01*
Y380074*
X291880*
Y373074*
X296505Y472137D02*
X296193Y471824D01*
X295567Y471511*
X294630*
X294005Y471824*
X293693Y472137*
X293380Y472761*
Y474011*
X293693Y474637*
X294005Y474949*
X294630Y475261*
X295567*
X296193Y474949*
X296505Y474637*
X298693Y471824D02*
X299317Y471511D01*
X299943*
X300567Y471824*
X300880Y472449*
X300567Y473074*
X299943Y473387*
X299317*
X299943D02*
X300567Y473699D01*
X300880Y474324*
X300567Y474949*
X299943Y475261*
X299317*
X298693Y474949*
X303380Y472449D02*
X303693Y473074D01*
X304317Y473387*
X304943*
X305567Y473074*
X305880Y472449*
X305567Y471824*
X304943Y471511*
X304317*
X303693Y471824*
X303380Y472449*
Y473387*
X303693Y474324*
X304317Y474949*
X304943Y475261*
X295252Y310574D02*
X279252D01*
Y303574*
X295252*
Y310574*
Y319324D02*
X279252D01*
Y312324*
X295252*
Y319324*
Y328074D02*
X279252D01*
Y321074*
X295252*
Y328074*
X295380Y383324D02*
X311380D01*
Y390324*
X295380*
Y383324*
X297811Y507072D02*
Y508948D01*
X296248Y510822*
X297811Y508948D02*
X299374Y510822D01*
X301874Y507072D02*
X303124D01*
X302498D02*
Y510822D01*
X301874Y510198*
X297439Y321824D02*
X301189D01*
Y319637*
X300877Y319011*
X300252Y318699*
X299627Y319011*
X299314Y319637*
Y321824*
Y319637D02*
X297439Y318699D01*
Y314324D02*
Y316824D01*
X299627Y314637*
X300252Y314324*
X300877Y314637*
X301189Y315261*
Y316199*
X300877Y316824*
X297752Y311824D02*
X297439Y311199D01*
Y310261*
X297752Y309637*
X298377Y309324*
X298689*
X299314Y309637*
X299627Y310261*
Y311824*
X301189*
Y309324*
X298500Y486074D02*
Y502074D01*
X291500*
Y486074*
X298500*
X301193Y362449D02*
X300880Y362761D01*
X300567Y363387*
Y364324*
X300880Y364949*
X301193Y365261*
X301817Y365574*
X303067*
X303693Y365261*
X304005Y364949*
X304317Y364324*
Y363387*
X304005Y362761*
X303693Y362449*
X300567Y359011D02*
X304317D01*
X301817Y360574*
Y358074*
X300880Y355261D02*
X300567Y354637D01*
Y354011*
X300880Y353387*
X301505Y353074*
X303380*
X304005Y353387*
X304317Y354011*
Y354637*
X304005Y355261*
X303380Y355574*
X301505*
X300880Y355261*
X304005Y353387*
X301760Y502060D02*
X321052D01*
Y485919*
X301760*
Y502060*
X302500Y504126D02*
X318500D01*
Y511126*
X302500*
Y504126*
X303502Y300574D02*
X319502D01*
Y307574*
X303502*
Y300574*
X307375Y513387D02*
X307063Y513074D01*
X306437Y512761*
X305500*
X304875Y513074*
X304563Y513387*
X304250Y514011*
Y515261*
X304563Y515887*
X304875Y516199*
X305500Y516511*
X306437*
X307063Y516199*
X307375Y515887*
X309563Y513074D02*
X310187Y512761D01*
X310813*
X311437Y513074*
X311750Y513699*
X311437Y514324*
X310813Y514637*
X310187*
X310813D02*
X311437Y514949D01*
X311750Y515574*
X311437Y516199*
X310813Y516511*
X310187*
X309563Y516199*
X315187Y512761D02*
X315813Y513074D01*
X316437Y513699*
X316750Y514637*
Y515574*
X316437Y516199*
X315813Y516511*
X315187*
X314563Y516199*
X314250Y515574*
X314563Y514949*
X315187Y514637*
X315813*
X316437Y514949*
X316750Y515574*
X305311Y310883D02*
Y330765D01*
X335193*
Y310883*
X321728*
Y312359*
X318775*
Y310883*
X305311*
X313375Y369637D02*
X313063Y369324D01*
X312437Y369011*
X311500*
X310875Y369324*
X310563Y369637*
X310250Y370261*
Y371511*
X310563Y372137*
X310875Y372449*
X311500Y372761*
X312437*
X313063Y372449*
X313375Y372137*
X316813Y369011D02*
Y372761D01*
X315250Y370261*
X317750*
X322750Y369011D02*
X320250D01*
X322437Y371199*
X322750Y371824*
X322437Y372449*
X321813Y372761*
X320875*
X320250Y372449*
X312880Y351324D02*
Y367324D01*
X305880*
Y351324*
X312880*
X315697Y432007D02*
X315384Y432320D01*
X315072Y432945*
Y433882*
X315384Y434507*
X315697Y434820*
X316322Y435132*
X317572*
X318197Y434820*
X318509Y434507*
X318822Y433882*
Y432945*
X318509Y432320*
X318197Y432007*
X315072Y428570D02*
X318822D01*
X316322Y430132*
Y427632*
X315384Y424820D02*
X315072Y424195D01*
Y423570*
X315384Y422945*
X316009Y422632*
X316634Y422945*
X316947Y423570*
Y424195*
Y423570D02*
X317259Y422945D01*
X317884Y422632*
X318509Y422945*
X318822Y423570*
Y424195*
X318509Y424820*
X315250Y335261D02*
Y332449D01*
X315563Y331824*
X316187Y331511*
X317437*
X318063Y331824*
X318375Y332449*
Y335261*
X322750Y331511D02*
X320250D01*
X322437Y333699*
X322750Y334324*
X322437Y334949*
X321813Y335261*
X320875*
X320250Y334949*
X326813Y331511D02*
Y335261D01*
X325250Y332761*
X327750*
X316671Y408385D02*
X309251D01*
Y421771*
X316671*
Y408385*
X317655Y403964D02*
Y400214D01*
X315468*
X314843Y400526*
X314530Y401151*
X314843Y401776*
X315468Y402089*
X317655*
X315468D02*
X314530Y403964D01*
X310155D02*
X312655D01*
X310468Y401776*
X310155Y401151*
X310468Y400526*
X311093Y400214*
X312030*
X312655Y400526*
X307655Y403026D02*
X307343Y402401D01*
X306718Y402089*
X306093*
X305468Y402401*
X305155Y403026*
X305468Y403651*
X306093Y403964*
X306718*
X307343Y403651*
X307655Y403026*
Y402089*
X307343Y401151*
X306718Y400526*
X306093Y400214*
X320130Y345324D02*
X304130D01*
Y338324*
X320130*
Y345324*
X320380Y351324D02*
Y367324D01*
X313380*
Y351324*
X320380*
X322443Y347449D02*
X322130Y347761D01*
X321817Y348387*
Y349324*
X322130Y349949*
X322443Y350261*
X323067Y350574*
X324317*
X324943Y350261*
X325255Y349949*
X325567Y349324*
Y348387*
X325255Y347761*
X324943Y347449*
X321817Y344011D02*
X325567D01*
X323067Y345574*
Y343074*
X322130Y340574D02*
X321817Y339949D01*
Y339011*
X322130Y338387*
X322755Y338074*
X323067*
X323693Y338387*
X324005Y339011*
Y340574*
X325567*
Y338074*
X324627Y302137D02*
X324314Y301824D01*
X323689Y301511*
X322752*
X322127Y301824*
X321814Y302137*
X321502Y302761*
Y304011*
X321814Y304637*
X322127Y304949*
X322752Y305261*
X323689*
X324314Y304949*
X324627Y304637*
X328064Y301511D02*
Y305261D01*
X326502Y302761*
X329002*
X332127Y301511D02*
X333377D01*
X332752D02*
Y305261D01*
X332127Y304637*
X328506Y417137D02*
X328193Y416824D01*
X327568Y416511*
X326631*
X326006Y416824*
X325693Y417137*
X325381Y417761*
Y419011*
X325693Y419637*
X326006Y419949*
X326631Y420261*
X327568*
X328193Y419949*
X328506Y419637*
X331943Y416511D02*
Y420261D01*
X330381Y417761*
X332881*
X336943Y416511D02*
Y420261D01*
X335381Y417761*
X337881*
X327130Y442761D02*
Y439949D01*
X327443Y439324*
X328067Y439011*
X329317*
X329943Y439324*
X330255Y439949*
Y442761*
X334630Y439011D02*
X332130D01*
X334317Y441199*
X334630Y441824*
X334317Y442449*
X333693Y442761*
X332755*
X332130Y442449*
X337130Y439324D02*
X337755Y439011D01*
X338693*
X339317Y439324*
X339630Y439949*
Y440261*
X339317Y440887*
X338693Y441199*
X337130*
Y442761*
X339630*
X327750Y500261D02*
Y504011D01*
X329625*
X330250Y503699*
X330563Y503387*
X330875Y502761*
Y501511*
X330563Y500887*
X330250Y500574*
X329625Y500261*
X327750*
X333687D02*
X334313Y500574D01*
X334937Y501199*
X335250Y502137*
Y503074*
X334937Y503699*
X334313Y504011*
X333687*
X333063Y503699*
X332750Y503074*
X333063Y502449*
X333687Y502137*
X334313*
X334937Y502449*
X335250Y503074*
X327880Y351324D02*
Y367324D01*
X320880*
Y351324*
X327880*
Y421324D02*
Y437324D01*
X320880*
Y421324*
X327880*
X329943Y347449D02*
X329630Y347761D01*
X329317Y348387*
Y349324*
X329630Y349949*
X329943Y350261*
X330567Y350574*
X331817*
X332443Y350261*
X332755Y349949*
X333067Y349324*
Y348387*
X332755Y347761*
X332443Y347449*
X329317Y344011D02*
X333067D01*
X330567Y345574*
Y343074*
X330255Y340574D02*
X330880Y340261D01*
X331193Y339637*
Y339011*
X330880Y338387*
X330255Y338074*
X329630Y338387*
X329317Y339011*
Y339637*
X329630Y340261*
X330255Y340574*
X331193*
X332130Y340261*
X332755Y339637*
X333067Y339011*
X328380Y480261D02*
Y476511D01*
X331505*
X333693Y476824D02*
X334317Y476511D01*
X334943*
X335567Y476824*
X335880Y477449*
X335567Y478074*
X334943Y478387*
X334317*
X334943D02*
X335567Y478699D01*
X335880Y479324*
X335567Y479949*
X334943Y480261*
X334317*
X333693Y479949*
X335380Y351324D02*
Y367324D01*
X328380*
Y351324*
X335380*
X335630Y421324D02*
Y437324D01*
X328630*
Y421324*
X335630*
X336235Y499039D02*
Y482109D01*
X326786*
Y499039*
X336235*
X337439Y324324D02*
X341189D01*
Y322137*
X340877Y321511*
X340252Y321199*
X339627Y321511*
X339314Y322137*
Y324324*
Y322137D02*
X337439Y321199D01*
X337752Y319011D02*
X337439Y318387D01*
Y317761*
X337752Y317137*
X338377Y316824*
X339002Y317137*
X339314Y317761*
Y318387*
Y317761D02*
X339627Y317137D01*
X340252Y316824*
X340877Y317137*
X341189Y317761*
Y318387*
X340877Y319011*
X337752Y314011D02*
X337439Y313387D01*
Y312761*
X337752Y312137*
X338377Y311824*
X340252*
X340877Y312137*
X341189Y312761*
Y313387*
X340877Y314011*
X340252Y314324*
X338377*
X337752Y314011*
X340877Y312137*
X338693Y347449D02*
X338380Y347761D01*
X338067Y348387*
Y349324*
X338380Y349949*
X338693Y350261*
X339317Y350574*
X340567*
X341193Y350261*
X341505Y349949*
X341817Y349324*
Y348387*
X341505Y347761*
X341193Y347449*
X338380Y345574D02*
X338067Y344949D01*
Y344011*
X338380Y343387*
X339005Y343074*
X339317*
X339943Y343387*
X340255Y344011*
Y345574*
X341817*
Y343074*
X339005Y340574D02*
X339630Y340261D01*
X339943Y339637*
Y339011*
X339630Y338387*
X339005Y338074*
X338380Y338387*
X338067Y339011*
Y339637*
X338380Y340261*
X339005Y340574*
X339943*
X340880Y340261*
X341505Y339637*
X341817Y339011*
X337380Y494237D02*
Y478237D01*
X344380*
Y494237*
X337380*
X339943Y505612D02*
X339630Y505925D01*
X339317Y506550*
Y507487*
X339630Y508112*
X339943Y508425*
X340567Y508737*
X341817*
X342443Y508425*
X342755Y508112*
X343067Y507487*
Y506550*
X342755Y505925*
X342443Y505612*
X339317Y502175D02*
X343067D01*
X340567Y503737*
Y501237*
X339317Y497800D02*
X339630Y497175D01*
X340255Y496550*
X341193Y496237*
X342130*
X342755Y496550*
X343067Y497175*
Y497800*
X342755Y498425*
X342130Y498737*
X341505Y498425*
X341193Y497800*
Y497175*
X341505Y496550*
X342130Y496237*
X338746Y519074D02*
X324746D01*
Y505074*
X338746*
Y519074*
X340498Y283554D02*
X356498D01*
Y290554*
X340498*
Y283554*
X342500Y416261D02*
Y413449D01*
X342813Y412824*
X343437Y412511*
X344687*
X345313Y412824*
X345625Y413449*
Y416261*
X350000Y412511D02*
X347500D01*
X349687Y414699*
X350000Y415324*
X349687Y415949*
X349063Y416261*
X348125*
X347500Y415949*
X352500Y413449D02*
X352813Y414074D01*
X353437Y414387*
X354063*
X354687Y414074*
X355000Y413449*
X354687Y412824*
X354063Y412511*
X353437*
X352813Y412824*
X352500Y413449*
Y414387*
X352813Y415324*
X353437Y415949*
X354063Y416261*
X345875Y292137D02*
X345563Y291824D01*
X344937Y291511*
X344000*
X343375Y291824*
X343063Y292137*
X342750Y292761*
Y294011*
X343063Y294637*
X343375Y294949*
X344000Y295261*
X344937*
X345563Y294949*
X345875Y294637*
X347750Y292449D02*
X348063Y293074D01*
X348687Y293387*
X349313*
X349937Y293074*
X350250Y292449*
X349937Y291824*
X349313Y291511*
X348687*
X348063Y291824*
X347750Y292449*
Y293387*
X348063Y294324*
X348687Y294949*
X349313Y295261*
X355250Y291511D02*
X352750D01*
X354937Y293699*
X355250Y294324*
X354937Y294949*
X354313Y295261*
X353375*
X352750Y294949*
X344436Y432007D02*
X344124Y432320D01*
X343811Y432945*
Y433882*
X344124Y434507*
X344436Y434820*
X345061Y435132*
X346311*
X346936Y434820*
X347249Y434507*
X347561Y433882*
Y432945*
X347249Y432320*
X346936Y432007*
X344124Y430132D02*
X343811Y429507D01*
Y428570*
X344124Y427945*
X344749Y427632*
X345061*
X345686Y427945*
X345999Y428570*
Y430132*
X347561*
Y427632*
X344124Y424820D02*
X343811Y424195D01*
Y423570*
X344124Y422945*
X344749Y422632*
X345374Y422945*
X345686Y423570*
Y424195*
Y423570D02*
X345999Y422945D01*
X346624Y422632*
X347249Y422945*
X347561Y423570*
Y424195*
X347249Y424820*
X343130Y351324D02*
Y367324D01*
X336130*
Y351324*
X343130*
Y421324D02*
Y437324D01*
X336130*
Y421324*
X343130*
X343502Y307324D02*
X359502D01*
Y314324*
X343502*
Y307324*
Y325074D02*
X359502D01*
Y332074*
X343502*
Y325074*
X346193Y347449D02*
X345880Y347761D01*
X345567Y348387*
Y349324*
X345880Y349949*
X346193Y350261*
X346817Y350574*
X348067*
X348693Y350261*
X349005Y349949*
X349317Y349324*
Y348387*
X349005Y347761*
X348693Y347449*
X345880Y345574D02*
X345567Y344949D01*
Y344011*
X345880Y343387*
X346505Y343074*
X346817*
X347443Y343387*
X347755Y344011*
Y345574*
X349317*
Y343074*
X345567Y339637D02*
X345880Y339011D01*
X346505Y338387*
X347443Y338074*
X348380*
X349005Y338387*
X349317Y339011*
Y339637*
X349005Y340261*
X348380Y340574*
X347755Y340261*
X347443Y339637*
Y339011*
X347755Y338387*
X348380Y338074*
X348377Y302137D02*
X348064Y301824D01*
X347439Y301511*
X346502*
X345877Y301824*
X345564Y302137*
X345252Y302761*
Y304011*
X345564Y304637*
X345877Y304949*
X346502Y305261*
X347439*
X348064Y304949*
X348377Y304637*
X350252Y302449D02*
X350564Y303074D01*
X351189Y303387*
X351814*
X352439Y303074*
X352752Y302449*
X352439Y301824*
X351814Y301511*
X351189*
X350564Y301824*
X350252Y302449*
Y303387*
X350564Y304324*
X351189Y304949*
X351814Y305261*
X355877Y301511D02*
X357127D01*
X356502D02*
Y305261D01*
X355877Y304637*
X348377Y333387D02*
X348064Y333074D01*
X347439Y332761*
X346502*
X345877Y333074*
X345564Y333387*
X345252Y334011*
Y335261*
X345564Y335887*
X345877Y336199*
X346502Y336511*
X347439*
X348064Y336199*
X348377Y335887*
X350252Y333699D02*
X350564Y334324D01*
X351189Y334637*
X351814*
X352439Y334324*
X352752Y333699*
X352439Y333074*
X351814Y332761*
X351189*
X350564Y333074*
X350252Y333699*
Y334637*
X350564Y335574*
X351189Y336199*
X351814Y336511*
X355564Y333074D02*
X356189Y332761D01*
X356814*
X357439Y333074*
X357752Y333699*
Y335574*
X357439Y336199*
X356814Y336511*
X356189*
X355564Y336199*
X355252Y335574*
Y333699*
X355564Y333074*
X357439Y336199*
X346817Y505574D02*
X350567D01*
Y503387*
X350255Y502761*
X349630Y502449*
X349005Y502761*
X348693Y503387*
Y505574*
Y503387D02*
X346817Y502449D01*
Y498074D02*
Y500574D01*
X349005Y498387*
X349630Y498074*
X350255Y498387*
X350567Y499011*
Y499949*
X350255Y500574*
X348693Y494637D02*
Y494011D01*
X349005Y493387*
X349630Y493074*
X350255Y493387*
X350567Y494011*
Y494637*
X350255Y495261*
X349630Y495574*
X349005Y495261*
X348693Y494637*
X348380Y495261*
X347755Y495574*
X347130Y495261*
X346817Y494637*
Y494011*
X347130Y493387*
X347755Y493074*
X348380Y493387*
X348693Y494011*
X347136Y473830D02*
Y443318D01*
X316624*
Y469893*
X320561Y473830*
X347136*
X347269Y256562D02*
X277269D01*
Y276562*
X347269*
Y256562*
X349206Y467074D02*
X365206D01*
Y474074*
X349206*
Y467074*
X349551Y523324D02*
X302051D01*
Y588324*
X349551*
Y523324*
X350630Y351324D02*
Y367324D01*
X343630*
Y351324*
X350630*
X352443Y537449D02*
X352130Y537761D01*
X351817Y538387*
Y539324*
X352130Y539949*
X352443Y540261*
X353067Y540574*
X354317*
X354943Y540261*
X355255Y539949*
X355567Y539324*
Y538387*
X355255Y537761*
X354943Y537449*
X353067Y535574D02*
X354317D01*
X354943Y535261*
X355255Y534949*
X355567Y534324*
Y533699*
X355255Y533074*
X354943Y532761*
X354317Y532449*
X353067*
X352443Y532761*
X352130Y533074*
X351817Y533699*
Y534324*
X352130Y534949*
X352443Y535261*
X353067Y535574*
X351817Y530574D02*
X355567D01*
X351817Y527449*
X355567*
X351817Y525574D02*
X355567D01*
X351817Y522449*
X355567*
X352130Y520574D02*
X351817Y519949D01*
Y519011*
X352130Y518387*
X352755Y518074*
X353067*
X353693Y518387*
X354005Y519011*
Y520574*
X355567*
Y518074*
X351687Y451783D02*
Y465365D01*
X365073*
Y451783*
X351687*
X351880Y475074D02*
Y491074D01*
X344880*
Y475074*
X351880*
X352380Y358074D02*
Y342074D01*
X359380*
Y358074*
X352380*
Y491074D02*
Y475074D01*
X359380*
Y491074*
X352380*
X354317Y505574D02*
X358067D01*
Y503387*
X357755Y502761*
X357130Y502449*
X356505Y502761*
X356193Y503387*
Y505574*
Y503387D02*
X354317Y502449D01*
X354630Y500261D02*
X354317Y499637D01*
Y499011*
X354630Y498387*
X355255Y498074*
X355880Y498387*
X356193Y499011*
Y499637*
Y499011D02*
X356505Y498387D01*
X357130Y498074*
X357755Y498387*
X358067Y499011*
Y499637*
X357755Y500261*
X356193Y494637D02*
Y494011D01*
X356505Y493387*
X357130Y493074*
X357755Y493387*
X358067Y494011*
Y494637*
X357755Y495261*
X357130Y495574*
X356505Y495261*
X356193Y494637*
X355880Y495261*
X355255Y495574*
X354630Y495261*
X354317Y494637*
Y494011*
X354630Y493387*
X355255Y493074*
X355880Y493387*
X356193Y494011*
X353207Y262187D02*
X353519Y261874D01*
X353832Y261249*
Y260312*
X353519Y259687*
X353207Y259374*
X352582Y259062*
X351332*
X350707Y259374*
X350394Y259687*
X350082Y260312*
Y261249*
X350394Y261874*
X350707Y262187*
X352582Y264062D02*
X351332D01*
X350707Y264374*
X350394Y264687*
X350082Y265312*
Y265937*
X350394Y266562*
X350707Y266874*
X351332Y267187*
X352582*
X353207Y266874*
X353519Y266562*
X353832Y265937*
Y265312*
X353519Y264687*
X353207Y264374*
X352582Y264062*
X353832Y269062D02*
X350082D01*
X353832Y272187*
X350082*
X353832Y274062D02*
X350082D01*
X353832Y277187*
X350082*
X353832Y280624D02*
X350082D01*
X352582Y279062*
Y281562*
X355380Y421074D02*
Y437074D01*
X348380*
Y421074*
X355380*
X357443Y432449D02*
X357130Y432761D01*
X356817Y433387*
Y434324*
X357130Y434949*
X357443Y435261*
X358067Y435574*
X359317*
X359943Y435261*
X360255Y434949*
X360567Y434324*
Y433387*
X360255Y432761*
X359943Y432449*
X357130Y430574D02*
X356817Y429949D01*
Y429011*
X357130Y428387*
X357755Y428074*
X358067*
X358693Y428387*
X359005Y429011*
Y430574*
X360567*
Y428074*
X358693Y424637D02*
Y424011D01*
X359005Y423387*
X359630Y423074*
X360255Y423387*
X360567Y424011*
Y424637*
X360255Y425261*
X359630Y425574*
X359005Y425261*
X358693Y424637*
X358380Y425261*
X357755Y425574*
X357130Y425261*
X356817Y424637*
Y424011*
X357130Y423387*
X357755Y423074*
X358380Y423387*
X358693Y424011*
X357319Y411578D02*
Y374570D01*
X319681*
Y411578*
X337024*
Y410102*
X339976*
Y411578*
X357319*
X360437Y397074D02*
X364187D01*
Y394887*
X363875Y394261*
X363250Y393949*
X362625Y394261*
X362313Y394887*
Y397074*
Y394887D02*
X360437Y393949D01*
X361375Y392074D02*
X362000Y391761D01*
X362313Y391137*
Y390511*
X362000Y389887*
X361375Y389574*
X360750Y389887*
X360437Y390511*
Y391137*
X360750Y391761*
X361375Y392074*
X362313*
X363250Y391761*
X363875Y391137*
X364187Y390511*
X360750Y386761D02*
X360437Y386137D01*
Y385511*
X360750Y384887*
X361375Y384574*
X363250*
X363875Y384887*
X364187Y385511*
Y386137*
X363875Y386761*
X363250Y387074*
X361375*
X360750Y386761*
X363875Y384887*
X359502Y321824D02*
X343502D01*
Y314824*
X359502*
Y321824*
X359880Y491074D02*
Y475074D01*
X366880*
Y491074*
X359880*
X361817Y355574D02*
X365567D01*
Y353387*
X365255Y352761*
X364630Y352449*
X364005Y352761*
X363693Y353387*
Y355574*
Y353387D02*
X361817Y352449D01*
X362130Y350574D02*
X361817Y349949D01*
Y349011*
X362130Y348387*
X362755Y348074*
X363067*
X363693Y348387*
X364005Y349011*
Y350574*
X365567*
Y348074*
X362130Y345261D02*
X361817Y344637D01*
Y344011*
X362130Y343387*
X362755Y343074*
X363380Y343387*
X363693Y344011*
Y344637*
Y344011D02*
X364005Y343387D01*
X364630Y343074*
X365255Y343387*
X365567Y344011*
Y344637*
X365255Y345261*
X362443Y502449D02*
X362130Y502761D01*
X361817Y503387*
Y504324*
X362130Y504949*
X362443Y505261*
X363067Y505574*
X364317*
X364943Y505261*
X365255Y504949*
X365567Y504324*
Y503387*
X365255Y502761*
X364943Y502449*
X362755Y500574D02*
X363380Y500261D01*
X363693Y499637*
Y499011*
X363380Y498387*
X362755Y498074*
X362130Y498387*
X361817Y499011*
Y499637*
X362130Y500261*
X362755Y500574*
X363693*
X364630Y500261*
X365255Y499637*
X365567Y499011*
X362130Y495261D02*
X361817Y494637D01*
Y494011*
X362130Y493387*
X362755Y493074*
X363380Y493387*
X363693Y494011*
Y494637*
Y494011D02*
X364005Y493387D01*
X364630Y493074*
X365255Y493387*
X365567Y494011*
Y494637*
X365255Y495261*
X361752Y299824D02*
Y283824D01*
X368752*
Y299824*
X361752*
Y322574D02*
Y306574D01*
X368752*
Y322574*
X361752*
X365375Y392137D02*
X365063Y391824D01*
X364437Y391511*
X363500*
X362875Y391824*
X362563Y392137*
X362250Y392761*
Y394011*
X362563Y394637*
X362875Y394949*
X363500Y395261*
X364437*
X365063Y394949*
X365375Y394637*
X367250Y392449D02*
X367563Y393074D01*
X368187Y393387*
X368813*
X369437Y393074*
X369750Y392449*
X369437Y391824*
X368813Y391511*
X368187*
X367563Y391824*
X367250Y392449*
Y393387*
X367563Y394324*
X368187Y394949*
X368813Y395261*
X372250Y391824D02*
X372875Y391511D01*
X373813*
X374437Y391824*
X374750Y392449*
Y392761*
X374437Y393387*
X373813Y393699*
X372250*
Y395261*
X374750*
X365000Y419824D02*
Y403824D01*
X372000*
Y419824*
X365000*
X366817Y464324D02*
X370567D01*
Y462137*
X370255Y461511*
X369630Y461199*
X369005Y461511*
X368693Y462137*
Y464324*
Y462137D02*
X366817Y461199D01*
Y457761D02*
X370567D01*
X368067Y459324*
Y456824*
X366817Y452761D02*
X370567D01*
X368067Y454324*
Y451824*
X367130Y469011D02*
Y472761D01*
X369317*
X369943Y472449*
X370255Y471824*
X369943Y471199*
X369317Y470887*
X367130*
X369317D02*
X370255Y469011D01*
X373693D02*
Y472761D01*
X372130Y470261*
X374630*
X377755Y469011D02*
X379005D01*
X378380D02*
Y472761D01*
X377755Y472137*
X371189Y298074D02*
X374939D01*
Y295887*
X374627Y295261*
X374002Y294949*
X373377Y295261*
X373064Y295887*
Y298074*
Y295887D02*
X371189Y294949D01*
X371502Y293074D02*
X371189Y292449D01*
Y291511*
X371502Y290887*
X372127Y290574*
X372439*
X373064Y290887*
X373377Y291511*
Y293074*
X374939*
Y290574*
X371502Y288074D02*
X371189Y287449D01*
Y286511*
X371502Y285887*
X372127Y285574*
X372439*
X373064Y285887*
X373377Y286511*
Y288074*
X374939*
Y285574*
X371189Y319324D02*
X374939D01*
Y317137*
X374627Y316511*
X374002Y316199*
X373377Y316511*
X373064Y317137*
Y319324*
Y317137D02*
X371189Y316199D01*
X371502Y314324D02*
X371189Y313699D01*
Y312761*
X371502Y312137*
X372127Y311824*
X372439*
X373064Y312137*
X373377Y312761*
Y314324*
X374939*
Y311824*
X371189Y307761D02*
X374939D01*
X372439Y309324*
Y306824*
X373813Y414949D02*
X373500Y415261D01*
X373187Y415887*
Y416824*
X373500Y417449*
X373813Y417761*
X374437Y418074*
X375687*
X376313Y417761*
X376625Y417449*
X376937Y416824*
Y415887*
X376625Y415261*
X376313Y414949*
X374125Y413074D02*
X374750Y412761D01*
X375063Y412137*
Y411511*
X374750Y410887*
X374125Y410574*
X373500Y410887*
X373187Y411511*
Y412137*
X373500Y412761*
X374125Y413074*
X375063*
X376000Y412761*
X376625Y412137*
X376937Y411511*
X373187Y406511D02*
X376937D01*
X374437Y408074*
Y405574*
X377750Y379074D02*
X361750D01*
Y372074*
X377750*
Y379074*
Y387074D02*
X361750D01*
Y380074*
X377750*
Y387074*
Y403074D02*
X361750D01*
Y396074*
X377750*
Y403074*
X381625Y374637D02*
X381313Y374324D01*
X380687Y374011*
X379750*
X379125Y374324*
X378813Y374637*
X378500Y375261*
Y376511*
X378813Y377137*
X379125Y377449*
X379750Y377761*
X380687*
X381313Y377449*
X381625Y377137*
X383500Y374949D02*
X383813Y375574D01*
X384437Y375887*
X385063*
X385687Y375574*
X386000Y374949*
X385687Y374324*
X385063Y374011*
X384437*
X383813Y374324*
X383500Y374949*
Y375887*
X383813Y376824*
X384437Y377449*
X385063Y377761*
X388500Y374011D02*
X391000Y377761D01*
X388500*
X381625Y382137D02*
X381313Y381824D01*
X380687Y381511*
X379750*
X379125Y381824*
X378813Y382137*
X378500Y382761*
Y384011*
X378813Y384637*
X379125Y384949*
X379750Y385261*
X380687*
X381313Y384949*
X381625Y384637*
X383500Y382449D02*
X383813Y383074D01*
X384437Y383387*
X385063*
X385687Y383074*
X386000Y382449*
X385687Y381824*
X385063Y381511*
X384437*
X383813Y381824*
X383500Y382449*
Y383387*
X383813Y384324*
X384437Y384949*
X385063Y385261*
X388500Y382449D02*
X388813Y383074D01*
X389437Y383387*
X390063*
X390687Y383074*
X391000Y382449*
X390687Y381824*
X390063Y381511*
X389437*
X388813Y381824*
X388500Y382449*
Y383387*
X388813Y384324*
X389437Y384949*
X390063Y385261*
X382000Y395574D02*
X366000D01*
Y388574*
X382000*
Y395574*
X0Y0D02*
M02*
