G04 DesignSpark PCB Gerber Version 9.0 Build 5138 *
G04 #@! TF.Part,Single*
G04 #@! TF.FileFunction,Legend,Bot *
G04 #@! TF.FilePolarity,Positive *
%FSLAX35Y35*%
%MOIN*%
%ADD10C,0.00500*%
X0Y0D02*
D02*
D10*
X32639Y483074D02*
X36389D01*
Y485261*
X36076Y485887*
X35451Y486199*
X34826Y485887*
X34514Y485261*
Y483074*
Y485261D02*
X32639Y486199D01*
X32951Y488387D02*
X32639Y489011D01*
Y489637*
X32951Y490261*
X33576Y490574*
X34201Y490261*
X34514Y489637*
Y489011*
Y489637D02*
X34826Y490261D01*
X35451Y490574*
X36076Y490261*
X36389Y489637*
Y489011*
X36076Y488387*
X32639Y493699D02*
Y494949D01*
Y494324D02*
X36389D01*
X35764Y493699*
X37595Y110982D02*
Y126982D01*
X44595*
Y110982*
X37595*
X45201Y496074D02*
Y480074D01*
X38201*
Y496074*
X45201*
X46095Y128669D02*
Y132419D01*
X43908*
X43283Y132107*
X42970Y131482*
X43283Y130857*
X43908Y130544*
X46095*
X43908D02*
X42970Y128669D01*
X39533D02*
Y132419D01*
X41095Y129919*
X38595*
X36095Y128669D02*
X33595Y132419D01*
X36095*
X46470Y443190D02*
Y434528D01*
X59463*
Y443190*
X53951*
Y442206*
X51982*
Y443190*
X46470*
X49000Y405261D02*
Y409011D01*
X46813*
X46187Y408699*
X45875Y408074*
X46187Y407449*
X46813Y407137*
X49000*
X46813D02*
X45875Y405261D01*
X42437D02*
Y409011D01*
X44000Y406511*
X41500*
X38063Y407137D02*
X37437D01*
X36813Y407449*
X36500Y408074*
X36813Y408699*
X37437Y409011*
X38063*
X38687Y408699*
X39000Y408074*
X38687Y407449*
X38063Y407137*
X38687Y406824*
X39000Y406199*
X38687Y405574*
X38063Y405261*
X37437*
X36813Y405574*
X36500Y406199*
X36813Y406824*
X37437Y407137*
X50386Y424331D02*
X36803D01*
Y410945*
X50386*
Y424331*
X53889Y476824D02*
X57639D01*
Y479011*
X57326Y479637*
X56701Y479949*
X56076Y479637*
X55764Y479011*
Y476824*
Y479011D02*
X53889Y479949D01*
Y483387D02*
X57639D01*
X55139Y481824*
Y484324*
X54201Y486824D02*
X53889Y487449D01*
Y488387*
X54201Y489011*
X54826Y489324*
X55139*
X55764Y489011*
X56076Y488387*
Y486824*
X57639*
Y489324*
X58687Y180574D02*
X62437D01*
Y182761*
X62125Y183387*
X61500Y183699*
X60875Y183387*
X60563Y182761*
Y180574*
Y182761D02*
X58687Y183699D01*
X59000Y185574D02*
X58687Y186199D01*
Y187137*
X59000Y187761*
X59625Y188074*
X59937*
X60563Y187761*
X60875Y187137*
Y185574*
X62437*
Y188074*
X58687Y190574D02*
X62437Y193074D01*
Y190574*
X59217Y432296D02*
Y429484D01*
X58904Y428859*
X58279Y428546*
X57029*
X56404Y428859*
X56091Y429484*
Y432296*
X53591Y428546D02*
X52341D01*
X52967D02*
Y432296D01*
X53591Y431672*
X48279Y428546D02*
X47654Y428859D01*
X47029Y429484*
X46717Y430422*
Y431359*
X47029Y431984*
X47654Y432296*
X48279*
X48904Y431984*
X49217Y431359*
X48904Y430734*
X48279Y430422*
X47654*
X47029Y430734*
X46717Y431359*
X65201Y496074D02*
Y480074D01*
X58201*
Y496074*
X65201*
X67995Y110982D02*
Y126982D01*
X74995*
Y110982*
X67995*
X70750Y564011D02*
Y567761D01*
X68875*
X68250Y567449*
X67937Y567137*
X67625Y566511*
Y565261*
X67937Y564637*
X68250Y564324*
X68875Y564011*
X70750*
X65437Y564324D02*
X64813Y564011D01*
X64187*
X63563Y564324*
X63250Y564949*
X63563Y565574*
X64187Y565887*
X64813*
X64187D02*
X63563Y566199D01*
X63250Y566824*
X63563Y567449*
X64187Y567761*
X64813*
X65437Y567449*
X71500Y194574D02*
Y178574D01*
X64500*
Y194574*
X71500*
X73889Y476824D02*
X77639D01*
Y479011*
X77326Y479637*
X76701Y479949*
X76076Y479637*
X75764Y479011*
Y476824*
Y479011D02*
X73889Y479949D01*
X74201Y482137D02*
X73889Y482761D01*
Y483387*
X74201Y484011*
X74826Y484324*
X75451Y484011*
X75764Y483387*
Y482761*
Y483387D02*
X76076Y484011D01*
X76701Y484324*
X77326Y484011*
X77639Y483387*
Y482761*
X77326Y482137*
X73889Y487761D02*
X74201Y488387D01*
X74826Y489011*
X75764Y489324*
X76701*
X77326Y489011*
X77639Y488387*
Y487761*
X77326Y487137*
X76701Y486824*
X76076Y487137*
X75764Y487761*
Y488387*
X76076Y489011*
X76701Y489324*
X77745Y128669D02*
Y132419D01*
X75558*
X74933Y132107*
X74620Y131482*
X74933Y130857*
X75558Y130544*
X77745*
X75558D02*
X74620Y128669D01*
X72433Y128982D02*
X71808Y128669D01*
X71183*
X70558Y128982*
X70245Y129607*
X70558Y130232*
X71183Y130544*
X71808*
X71183D02*
X70558Y130857D01*
X70245Y131482*
X70558Y132107*
X71183Y132419*
X71808*
X72433Y132107*
X67745Y128669D02*
X65245Y132419D01*
X67745*
X79500Y194574D02*
Y178574D01*
X72500*
Y194574*
X79500*
X81937Y180574D02*
X85687D01*
Y182761*
X85375Y183387*
X84750Y183699*
X84125Y183387*
X83813Y182761*
Y180574*
Y182761D02*
X81937Y183699D01*
X82250Y185574D02*
X81937Y186199D01*
Y187137*
X82250Y187761*
X82875Y188074*
X83187*
X83813Y187761*
X84125Y187137*
Y185574*
X85687*
Y188074*
X82875Y190574D02*
X83500Y190887D01*
X83813Y191511*
Y192137*
X83500Y192761*
X82875Y193074*
X82250Y192761*
X81937Y192137*
Y191511*
X82250Y190887*
X82875Y190574*
X83813*
X84750Y190887*
X85375Y191511*
X85687Y192137*
X83334Y442587D02*
Y433926D01*
X96326*
Y442587*
X90814*
Y441603*
X88846*
Y442587*
X83334*
X85201Y496074D02*
Y480074D01*
X78201*
Y496074*
X85201*
X86828Y420513D02*
X102828D01*
Y413513*
X86828*
Y420513*
X87000Y571824D02*
Y556824D01*
X73000*
Y571824*
X86900*
X93889Y476824D02*
X97639D01*
Y479011*
X97326Y479637*
X96701Y479949*
X96076Y479637*
X95764Y479011*
Y476824*
Y479011D02*
X93889Y479949D01*
Y483387D02*
X97639D01*
X95139Y481824*
Y484324*
X93889Y489324D02*
Y486824D01*
X96076Y489011*
X96701Y489324*
X97326Y489011*
X97639Y488387*
Y487449*
X97326Y486824*
X94951Y349910D02*
X110951D01*
Y342910*
X94951*
Y349910*
X96080Y431694D02*
Y428881D01*
X95767Y428256*
X95143Y427944*
X93893*
X93267Y428256*
X92955Y428881*
Y431694*
X88580Y427944D02*
X91080D01*
X88893Y430131*
X88580Y430756*
X88893Y431381*
X89517Y431694*
X90455*
X91080Y431381*
X85767Y428256D02*
X85143Y427944D01*
X84517*
X83893Y428256*
X83580Y428881*
Y430756*
X83893Y431381*
X84517Y431694*
X85143*
X85767Y431381*
X86080Y430756*
Y428881*
X85767Y428256*
X83893Y431381*
X97995Y110982D02*
Y126982D01*
X104995*
Y110982*
X97995*
X99500Y552761D02*
Y556511D01*
X97625*
X97000Y556199*
X96687Y555887*
X96375Y555261*
Y554011*
X96687Y553387*
X97000Y553074*
X97625Y552761*
X99500*
X92937D02*
Y556511D01*
X94500Y554011*
X92000*
X100250Y422950D02*
Y426700D01*
X98063*
X97437Y426388*
X97125Y425763*
X97437Y425138*
X98063Y424826*
X100250*
X98063D02*
X97125Y422950D01*
X95250Y423263D02*
X94625Y422950D01*
X93687*
X93063Y423263*
X92750Y423888*
Y424200*
X93063Y424826*
X93687Y425138*
X95250*
Y426700*
X92750*
X89625Y422950D02*
X88375D01*
X89000D02*
Y426700D01*
X89625Y426076*
X104937Y201824D02*
X108687D01*
Y204011*
X108375Y204637*
X107750Y204949*
X107125Y204637*
X106813Y204011*
Y201824*
Y204011D02*
X104937Y204949D01*
X105250Y206824D02*
X104937Y207449D01*
Y208387*
X105250Y209011*
X105875Y209324*
X106187*
X106813Y209011*
X107125Y208387*
Y206824*
X108687*
Y209324*
X104937Y212761D02*
X105250Y213387D01*
X105875Y214011*
X106813Y214324*
X107750*
X108375Y214011*
X108687Y213387*
Y212761*
X108375Y212137*
X107750Y211824*
X107125Y212137*
X106813Y212761*
Y213387*
X107125Y214011*
X107750Y214324*
X105201Y496074D02*
Y480074D01*
X98201*
Y496074*
X105201*
X106495Y128669D02*
Y132419D01*
X104308*
X103683Y132107*
X103370Y131482*
X103683Y130857*
X104308Y130544*
X106495*
X104308D02*
X103370Y128669D01*
X99933D02*
Y132419D01*
X101495Y129919*
X98995*
X96495Y129607D02*
X96183Y130232D01*
X95558Y130544*
X94933*
X94308Y130232*
X93995Y129607*
X94308Y128982*
X94933Y128669*
X95558*
X96183Y128982*
X96495Y129607*
Y130544*
X96183Y131482*
X95558Y132107*
X94933Y132419*
X105875Y337137D02*
X106187Y336824D01*
X106813Y336511*
X107750*
X108375Y336824*
X108687Y337137*
X109000Y337761*
Y339011*
X108687Y339637*
X108375Y339949*
X107750Y340261*
X106813*
X106187Y339949*
X105875Y339637*
X104000Y336824D02*
X103375Y336511D01*
X102437*
X101813Y336824*
X101500Y337449*
Y337761*
X101813Y338387*
X102437Y338699*
X104000*
Y340261*
X101500*
X99000Y336824D02*
X98375Y336511D01*
X97437*
X96813Y336824*
X96500Y337449*
Y337761*
X96813Y338387*
X97437Y338699*
X99000*
Y340261*
X96500*
X109000Y572574D02*
Y557574D01*
X95000*
Y572574*
X108900*
X116569Y515105D02*
Y530105D01*
X130569*
Y515105*
X116669*
X118000Y216074D02*
Y200074D01*
X111000*
Y216074*
X118000*
X125571Y572074D02*
Y557074D01*
X111571*
Y572074*
X125471*
X126000Y216074D02*
Y200074D01*
X119000*
Y216074*
X126000*
X128437Y201824D02*
X132187D01*
Y204011*
X131875Y204637*
X131250Y204949*
X130625Y204637*
X130313Y204011*
Y201824*
Y204011D02*
X128437Y204949D01*
X128750Y206824D02*
X128437Y207449D01*
Y208387*
X128750Y209011*
X129375Y209324*
X129687*
X130313Y209011*
X130625Y208387*
Y206824*
X132187*
Y209324*
X130313Y212761D02*
Y213387D01*
X130625Y214011*
X131250Y214324*
X131875Y214011*
X132187Y213387*
Y212761*
X131875Y212137*
X131250Y211824*
X130625Y212137*
X130313Y212761*
X130000Y212137*
X129375Y211824*
X128750Y212137*
X128437Y212761*
Y213387*
X128750Y214011*
X129375Y214324*
X130000Y214011*
X130313Y213387*
X127750Y483074D02*
X142750D01*
X127750Y509011D02*
Y512761D01*
X125875*
X125250Y512449*
X124937Y512137*
X124625Y511511*
Y510261*
X124937Y509637*
X125250Y509324*
X125875Y509011*
X127750*
X122750Y509324D02*
X122125Y509011D01*
X121187*
X120563Y509324*
X120250Y509949*
Y510261*
X120563Y510887*
X121187Y511199*
X122750*
Y512761*
X120250*
X127995Y110982D02*
Y126982D01*
X134995*
Y110982*
X127995*
X131189Y439257D02*
X147189D01*
Y432257*
X131189*
Y439257*
X135250Y567761D02*
Y571511D01*
X133375*
X132750Y571199*
X132437Y570887*
X132125Y570261*
Y569011*
X132437Y568387*
X132750Y568074*
X133375Y567761*
X135250*
X130250Y568699D02*
X129937Y569324D01*
X129313Y569637*
X128687*
X128063Y569324*
X127750Y568699*
X128063Y568074*
X128687Y567761*
X129313*
X129937Y568074*
X130250Y568699*
Y569637*
X129937Y570574*
X129313Y571199*
X128687Y571511*
X136500Y412761D02*
Y409949D01*
X136187Y409324*
X135563Y409011*
X134313*
X133687Y409324*
X133375Y409949*
Y412761*
X129000Y409011D02*
X131500D01*
X129313Y411199*
X129000Y411824*
X129313Y412449*
X129937Y412761*
X130875*
X131500Y412449*
X125875Y409011D02*
X124625D01*
X125250D02*
Y412761D01*
X125875Y412137*
X137745Y128669D02*
Y132419D01*
X135558*
X134933Y132107*
X134620Y131482*
X134933Y130857*
X135558Y130544*
X137745*
X135558D02*
X134620Y128669D01*
X131183D02*
Y132419D01*
X132745Y129919*
X130245*
X127433Y128982D02*
X126808Y128669D01*
X126183*
X125558Y128982*
X125245Y129607*
Y131482*
X125558Y132107*
X126183Y132419*
X126808*
X127433Y132107*
X127745Y131482*
Y129607*
X127433Y128982*
X125558Y132107*
X139065Y553155D02*
Y556905D01*
X137190*
X136565Y556593*
X136253Y556280*
X135940Y555655*
Y554405*
X136253Y553780*
X136565Y553468*
X137190Y553155*
X139065*
X133128Y555030D02*
X132503D01*
X131878Y555343*
X131565Y555968*
X131878Y556593*
X132503Y556905*
X133128*
X133753Y556593*
X134065Y555968*
X133753Y555343*
X133128Y555030*
X133753Y554718*
X134065Y554093*
X133753Y553468*
X133128Y553155*
X132503*
X131878Y553468*
X131565Y554093*
X131878Y554718*
X132503Y555030*
X139192Y415011D02*
X124192D01*
Y429011*
X139192*
Y415111*
X141504Y559251D02*
G75*
G02X139327I-1089D01*
G01*
G75*
G02X141504I1089*
G01*
G36*
G75*
G02X139327I-1089*
G01*
G75*
G02X141504I1089*
G01*
G37*
X142971Y558163D02*
X129160D01*
Y563273*
X142971*
Y558163*
X142125Y442320D02*
X142437Y442007D01*
X143063Y441694*
X144000*
X144625Y442007*
X144937Y442320*
X145250Y442944*
Y444194*
X144937Y444820*
X144625Y445132*
X144000Y445444*
X143063*
X142437Y445132*
X142125Y444820*
X140250Y442007D02*
X139625Y441694D01*
X138687*
X138063Y442007*
X137750Y442632*
Y442944*
X138063Y443570*
X138687Y443882*
X140250*
Y445444*
X137750*
X135250Y441694D02*
X132750Y445444D01*
X135250*
X149313Y244949D02*
X149000Y244637D01*
X148687Y244011*
Y243074*
X149000Y242449*
X149313Y242137*
X149937Y241824*
X151187*
X151813Y242137*
X152125Y242449*
X152437Y243074*
Y244011*
X152125Y244637*
X151813Y244949*
X149625Y246824D02*
X150250Y247137D01*
X150563Y247761*
Y248387*
X150250Y249011*
X149625Y249324*
X149000Y249011*
X148687Y248387*
Y247761*
X149000Y247137*
X149625Y246824*
X150563*
X151500Y247137*
X152125Y247761*
X152437Y248387*
X150563Y252761D02*
Y253387D01*
X150875Y254011*
X151500Y254324*
X152125Y254011*
X152437Y253387*
Y252761*
X152125Y252137*
X151500Y251824*
X150875Y252137*
X150563Y252761*
X150250Y252137*
X149625Y251824*
X149000Y252137*
X148687Y252761*
Y253387*
X149000Y254011*
X149625Y254324*
X150250Y254011*
X150563Y253387*
X154000Y517761D02*
Y521511D01*
X152125*
X151500Y521199*
X151187Y520887*
X150875Y520261*
Y519011*
X151187Y518387*
X151500Y518074*
X152125Y517761*
X154000*
X149000D02*
X146500Y521511D01*
X149000*
X154625Y524262D02*
G75*
G02X152448I-1089D01*
G01*
G75*
G02X154625I1089*
G01*
G36*
G75*
G02X152448I-1089*
G01*
G75*
G02X154625I1089*
G01*
G37*
X156092Y523174D02*
X142281D01*
Y528284*
X156092*
Y523174*
X157995Y110982D02*
Y126982D01*
X164995*
Y110982*
X157995*
X162500Y256074D02*
Y240074D01*
X155500*
Y256074*
X162500*
X162750Y427761D02*
Y431511D01*
X160563*
X159937Y431199*
X159625Y430574*
X159937Y429949*
X160563Y429637*
X162750*
X160563D02*
X159625Y427761D01*
X157750Y428074D02*
X157125Y427761D01*
X156187*
X155563Y428074*
X155250Y428699*
Y429011*
X155563Y429637*
X156187Y429949*
X157750*
Y431511*
X155250*
X150250Y427761D02*
X152750D01*
X150563Y429949*
X150250Y430574*
X150563Y431199*
X151187Y431511*
X152125*
X152750Y431199*
X163434Y418511D02*
X147434D01*
Y425511*
X163434*
Y418511*
X167745Y128669D02*
Y132419D01*
X165558*
X164933Y132107*
X164620Y131482*
X164933Y130857*
X165558Y130544*
X167745*
X165558D02*
X164620Y128669D01*
X161183D02*
Y132419D01*
X162745Y129919*
X160245*
X157433Y128982D02*
X156808Y128669D01*
X156183*
X155558Y128982*
X155245Y129607*
X155558Y130232*
X156183Y130544*
X156808*
X156183D02*
X155558Y130857D01*
X155245Y131482*
X155558Y132107*
X156183Y132419*
X156808*
X157433Y132107*
X189796Y537102D02*
X204796D01*
Y523102*
X189796*
Y537002*
X207437Y525574D02*
X211187D01*
Y527449*
X210875Y528074*
X210563Y528387*
X209937Y528699*
X208687*
X208063Y528387*
X207750Y528074*
X207437Y527449*
Y525574*
Y533074D02*
Y530574D01*
X209625Y532761*
X210250Y533074*
X210875Y532761*
X211187Y532137*
Y531199*
X210875Y530574*
X222877Y502267D02*
X248507D01*
Y538921*
X222877*
Y502267*
X223660Y551094D02*
X239660D01*
Y544094*
X223660*
Y551094*
Y559844D02*
X239660D01*
Y552844*
X223660*
Y559844*
X233375Y563387D02*
X233687Y563074D01*
X234313Y562761*
X235250*
X235875Y563074*
X236187Y563387*
X236500Y564011*
Y565261*
X236187Y565887*
X235875Y566199*
X235250Y566511*
X234313*
X233687Y566199*
X233375Y565887*
X231500Y562761D02*
X229000Y566511D01*
X231500*
X235255Y448817D02*
X235567Y448505D01*
X236193Y448192*
X237130*
X237755Y448505*
X238067Y448817*
X238380Y449442*
Y450692*
X238067Y451317*
X237755Y451630*
X237130Y451942*
X236193*
X235567Y451630*
X235255Y451317*
X233380Y448505D02*
X232755Y448192D01*
X231817*
X231193Y448505*
X230880Y449130*
Y449442*
X231193Y450067*
X231817Y450380*
X233380*
Y451942*
X230880*
X226817Y448192D02*
Y451942D01*
X228380Y449442*
X225880*
X236505Y468307D02*
X236817Y467994D01*
X237443Y467681*
X238380*
X239005Y467994*
X239317Y468307*
X239630Y468931*
Y470181*
X239317Y470807*
X239005Y471119*
X238380Y471431*
X237443*
X236817Y471119*
X236505Y470807*
X234630Y467994D02*
X234005Y467681D01*
X233067*
X232443Y467994*
X232130Y468619*
Y468931*
X232443Y469557*
X233067Y469869*
X234630*
Y471431*
X232130*
X229317Y467994D02*
X228693Y467681D01*
X228067*
X227443Y467994*
X227130Y468619*
Y470494*
X227443Y471119*
X228067Y471431*
X228693*
X229317Y471119*
X229630Y470494*
Y468619*
X229317Y467994*
X227443Y471119*
X240692Y501031D02*
Y498219D01*
X240379Y497594*
X239754Y497281*
X238504*
X237879Y497594*
X237567Y498219*
Y501031*
X233192Y497281D02*
X235692D01*
X233504Y499469*
X233192Y500094*
X233504Y500719*
X234129Y501031*
X235067*
X235692Y500719*
X240880Y473494D02*
X224880D01*
Y480494*
X240880*
Y473494*
X241380Y439755D02*
X225380D01*
Y446755*
X241380*
Y439755*
X245875Y546657D02*
X246187Y546344D01*
X246813Y546031*
X247750*
X248375Y546344*
X248687Y546657*
X249000Y547281*
Y548531*
X248687Y549157*
X248375Y549469*
X247750Y549781*
X246813*
X246187Y549469*
X245875Y549157*
X243063Y547907D02*
X242437D01*
X241813Y548219*
X241500Y548844*
X241813Y549469*
X242437Y549781*
X243063*
X243687Y549469*
X244000Y548844*
X243687Y548219*
X243063Y547907*
X243687Y547594*
X244000Y546969*
X243687Y546344*
X243063Y546031*
X242437*
X241813Y546344*
X241500Y546969*
X241813Y547594*
X242437Y547907*
X252401Y524855D02*
X268401D01*
Y517855*
X252401*
Y524855*
X256404Y544975D02*
Y528975D01*
X249404*
Y544975*
X256404*
X259313Y536199D02*
X259000Y535887D01*
X258687Y535261*
Y534324*
X259000Y533699*
X259313Y533387*
X259937Y533074*
X261187*
X261813Y533387*
X262125Y533699*
X262437Y534324*
Y535261*
X262125Y535887*
X261813Y536199*
X259625Y538074D02*
X260250Y538387D01*
X260563Y539011*
Y539637*
X260250Y540261*
X259625Y540574*
X259000Y540261*
X258687Y539637*
Y539011*
X259000Y538387*
X259625Y538074*
X260563*
X261500Y538387*
X262125Y539011*
X262437Y539637*
X260875Y512137D02*
X261187Y511824D01*
X261813Y511511*
X262750*
X263375Y511824*
X263687Y512137*
X264000Y512761*
Y514011*
X263687Y514637*
X263375Y514949*
X262750Y515261*
X261813*
X261187Y514949*
X260875Y514637*
X259000Y511824D02*
X258375Y511511D01*
X257437*
X256813Y511824*
X256500Y512449*
Y512761*
X256813Y513387*
X257437Y513699*
X259000*
Y515261*
X256500*
X272701Y422387D02*
X288701D01*
Y415387*
X272701*
Y422387*
Y457580D02*
X288701D01*
Y450580*
X272701*
Y457580*
Y465499D02*
X288701D01*
Y458499*
X272701*
Y465499*
X272826Y429885D02*
X288826D01*
Y422885*
X272826*
Y429885*
X272880Y494074D02*
X288880D01*
Y487074*
X272880*
Y494074*
X279687Y500574D02*
X276875D01*
X276250Y500887*
X275937Y501511*
Y502761*
X276250Y503387*
X276875Y503699*
X279687*
X275937Y506199D02*
Y507449D01*
Y506824D02*
X279687D01*
X279063Y506199*
X282236Y496696D02*
X296764D01*
Y519452*
X282236*
Y508566*
X282728*
Y507582*
X282236*
Y496696*
X284630Y481511D02*
Y485261D01*
X282443*
X281817Y484949*
X281505Y484324*
X281817Y483699*
X282443Y483387*
X284630*
X282443D02*
X281505Y481511D01*
X277130D02*
X279630D01*
X277443Y483699*
X277130Y484324*
X277443Y484949*
X278067Y485261*
X279005*
X279630Y484949*
X284005Y411078D02*
X284317Y410765D01*
X284943Y410453*
X285880*
X286505Y410765*
X286817Y411078*
X287130Y411703*
Y412953*
X286817Y413578*
X286505Y413891*
X285880Y414203*
X284943*
X284317Y413891*
X284005Y413578*
X282130Y410765D02*
X281505Y410453D01*
X280567*
X279943Y410765*
X279630Y411391*
Y411703*
X279943Y412328*
X280567Y412641*
X282130*
Y414203*
X279630*
X276505Y410453D02*
X275255D01*
X275880D02*
Y414203D01*
X276505Y413578*
X284005Y432005D02*
X284317Y431693D01*
X284943Y431380*
X285880*
X286505Y431693*
X286817Y432005*
X287130Y432630*
Y433880*
X286817Y434505*
X286505Y434818*
X285880Y435130*
X284943*
X284317Y434818*
X284005Y434505*
X282130Y431693D02*
X281505Y431380D01*
X280567*
X279943Y431693*
X279630Y432318*
Y432630*
X279943Y433255*
X280567Y433568*
X282130*
Y435130*
X279630*
X274630Y431380D02*
X277130D01*
X274943Y433568*
X274630Y434193*
X274943Y434818*
X275567Y435130*
X276505*
X277130Y434818*
X284005Y467310D02*
X284317Y466998D01*
X284943Y466685*
X285880*
X286505Y466998*
X286817Y467310*
X287130Y467935*
Y469185*
X286817Y469810*
X286505Y470123*
X285880Y470435*
X284943*
X284317Y470123*
X284005Y469810*
X280567Y466685D02*
Y470435D01*
X282130Y467935*
X279630*
X277130Y466685D02*
X274630Y470435D01*
X277130*
X284143Y445442D02*
X284455Y445130D01*
X285080Y444817*
X286018*
X286643Y445130*
X286955Y445442*
X287268Y446067*
Y447317*
X286955Y447942*
X286643Y448255*
X286018Y448567*
X285080*
X284455Y448255*
X284143Y447942*
X280705Y444817D02*
Y448567D01*
X282268Y446067*
X279768*
X276330Y446692D02*
X275705D01*
X275080Y447005*
X274768Y447630*
X275080Y448255*
X275705Y448567*
X276330*
X276955Y448255*
X277268Y447630*
X276955Y447005*
X276330Y446692*
X276955Y446380*
X277268Y445755*
X276955Y445130*
X276330Y444817*
X275705*
X275080Y445130*
X274768Y445755*
X275080Y446380*
X275705Y446692*
X292750Y284370D02*
Y288120D01*
X290563*
X289937Y287808*
X289625Y287183*
X289937Y286558*
X290563Y286245*
X292750*
X290563D02*
X289625Y284370D01*
X287437Y284683D02*
X286813Y284370D01*
X286187*
X285563Y284683*
X285250Y285308*
X285563Y285933*
X286187Y286245*
X286813*
X286187D02*
X285563Y286558D01*
X285250Y287183*
X285563Y287808*
X286187Y288120*
X286813*
X287437Y287808*
X282437Y284683D02*
X281813Y284370D01*
X281187*
X280563Y284683*
X280250Y285308*
X280563Y285933*
X281187Y286245*
X281813*
X281187D02*
X280563Y286558D01*
X280250Y287183*
X280563Y287808*
X281187Y288120*
X281813*
X282437Y287808*
X295269Y276183D02*
X279269D01*
Y283183*
X295269*
Y276183*
X298380Y524074D02*
X314380D01*
Y517074*
X298380*
Y524074*
Y534074D02*
X314380D01*
Y527074*
X298380*
Y534074*
X302750Y241511D02*
Y245261D01*
X300563*
X299937Y244949*
X299625Y244324*
X299937Y243699*
X300563Y243387*
X302750*
X300563D02*
X299625Y241511D01*
X297437Y241824D02*
X296813Y241511D01*
X296187*
X295563Y241824*
X295250Y242449*
X295563Y243074*
X296187Y243387*
X296813*
X296187D02*
X295563Y243699D01*
X295250Y244324*
X295563Y244949*
X296187Y245261*
X296813*
X297437Y244949*
X290250Y241511D02*
X292750D01*
X290563Y243699*
X290250Y244324*
X290563Y244949*
X291187Y245261*
X292125*
X292750Y244949*
X304943Y484532D02*
X304630Y484219D01*
X304317Y483594*
Y482657*
X304630Y482032*
X304943Y481719*
X305567Y481407*
X306817*
X307443Y481719*
X307755Y482032*
X308067Y482657*
Y483594*
X307755Y484219*
X307443Y484532*
X304317Y488907D02*
Y486407D01*
X306505Y488594*
X307130Y488907*
X307755Y488594*
X308067Y487969*
Y487032*
X307755Y486407*
X304630Y491719D02*
X304317Y492344D01*
Y492969*
X304630Y493594*
X305255Y493907*
X305880Y493594*
X306193Y492969*
Y492344*
Y492969D02*
X306505Y493594D01*
X307130Y493907*
X307755Y493594*
X308067Y492969*
Y492344*
X307755Y491719*
X305269Y247940D02*
X289269D01*
Y254940*
X305269*
Y247940*
X308815Y294874D02*
X334445D01*
Y331527*
X308815*
Y294874*
X308880Y348574D02*
X324880D01*
Y341574*
X308880*
Y348574*
Y357324D02*
X324880D01*
Y350324*
X308880*
Y357324*
X306505Y535887D02*
X306817Y535574D01*
X307443Y535261*
X308380*
X309005Y535574*
X309317Y535887*
X309630Y536511*
Y537761*
X309317Y538387*
X309005Y538699*
X308380Y539011*
X307443*
X306817Y538699*
X306505Y538387*
X302130Y535261D02*
X304630D01*
X302443Y537449*
X302130Y538074*
X302443Y538699*
X303067Y539011*
X304005*
X304630Y538699*
X312750Y285261D02*
Y289011D01*
X310563*
X309937Y288699*
X309625Y288074*
X309937Y287449*
X310563Y287137*
X312750*
X310563D02*
X309625Y285261D01*
X307437Y285574D02*
X306813Y285261D01*
X306187*
X305563Y285574*
X305250Y286199*
X305563Y286824*
X306187Y287137*
X306813*
X306187D02*
X305563Y287449D01*
X305250Y288074*
X305563Y288699*
X306187Y289011*
X306813*
X307437Y288699*
X302750Y285574D02*
X302125Y285261D01*
X301187*
X300563Y285574*
X300250Y286199*
Y286511*
X300563Y287137*
X301187Y287449*
X302750*
Y289011*
X300250*
X314500Y500574D02*
X298500D01*
Y507574*
X314500*
Y500574*
Y508574D02*
X298500D01*
Y515574*
X314500*
Y508574*
X315269Y276183D02*
X299269D01*
Y283183*
X315269*
Y276183*
X315880Y495616D02*
Y479616D01*
X308880*
Y495616*
X315880*
X322750Y242761D02*
Y246511D01*
X320563*
X319937Y246199*
X319625Y245574*
X319937Y244949*
X320563Y244637*
X322750*
X320563D02*
X319625Y242761D01*
X317437Y243074D02*
X316813Y242761D01*
X316187*
X315563Y243074*
X315250Y243699*
X315563Y244324*
X316187Y244637*
X316813*
X316187D02*
X315563Y244949D01*
X315250Y245574*
X315563Y246199*
X316187Y246511*
X316813*
X317437Y246199*
X311187Y242761D02*
Y246511D01*
X312750Y244011*
X310250*
X324380Y495616D02*
Y479616D01*
X317380*
Y495616*
X324380*
X325567Y483866D02*
X329317D01*
Y486053*
X329005Y486678*
X328380Y486991*
X327755Y486678*
X327443Y486053*
Y483866*
Y486053D02*
X325567Y486991D01*
Y488866D02*
X329317Y491366D01*
Y488866*
X325250Y336511D02*
Y333699D01*
X324937Y333074*
X324313Y332761*
X323063*
X322437Y333074*
X322125Y333699*
Y336511*
X319937Y333074D02*
X319313Y332761D01*
X318687*
X318063Y333074*
X317750Y333699*
X318063Y334324*
X318687Y334637*
X319313*
X318687D02*
X318063Y334949D01*
X317750Y335574*
X318063Y336199*
X318687Y336511*
X319313*
X319937Y336199*
X322125Y503387D02*
X322437Y503074D01*
X323063Y502761*
X324000*
X324625Y503074*
X324937Y503387*
X325250Y504011*
Y505261*
X324937Y505887*
X324625Y506199*
X324000Y506511*
X323063*
X322437Y506199*
X322125Y505887*
X318687Y502761D02*
Y506511D01*
X320250Y504011*
X317750*
X322125Y510887D02*
X322437Y510574D01*
X323063Y510261*
X324000*
X324625Y510574*
X324937Y510887*
X325250Y511511*
Y512761*
X324937Y513387*
X324625Y513699*
X324000Y514011*
X323063*
X322437Y513699*
X322125Y513387*
X319937Y510574D02*
X319313Y510261D01*
X318687*
X318063Y510574*
X317750Y511199*
X318063Y511824*
X318687Y512137*
X319313*
X318687D02*
X318063Y512449D01*
X317750Y513074*
X318063Y513699*
X318687Y514011*
X319313*
X319937Y513699*
X325269Y248565D02*
X309269D01*
Y255565*
X325269*
Y248565*
X330250Y519011D02*
Y522761D01*
X327125*
X327750Y520887D02*
X330250D01*
X323063D02*
X322437Y520574D01*
X322125Y519949*
X322437Y519324*
X323063Y519011*
X325250*
Y522761*
X323063*
X322437Y522449*
X322125Y521824*
X322437Y521199*
X323063Y520887*
X325250*
X317750Y519011D02*
X320250D01*
X318063Y521199*
X317750Y521824*
X318063Y522449*
X318687Y522761*
X319625*
X320250Y522449*
X330250Y561511D02*
Y565261D01*
X327125*
X327750Y563387D02*
X330250D01*
X323063D02*
X322437Y563074D01*
X322125Y562449*
X322437Y561824*
X323063Y561511*
X325250*
Y565261*
X323063*
X322437Y564949*
X322125Y564324*
X322437Y563699*
X323063Y563387*
X325250*
X319625Y561511D02*
X318375D01*
X319000D02*
Y565261D01*
X319625Y564637*
X327755Y450887D02*
X328067Y450574D01*
X328693Y450261*
X329630*
X330255Y450574*
X330567Y450887*
X330880Y451511*
Y452761*
X330567Y453387*
X330255Y453699*
X329630Y454011*
X328693*
X328067Y453699*
X327755Y453387*
X323380Y450261D02*
X325880D01*
X323693Y452449*
X323380Y453074*
X323693Y453699*
X324317Y454011*
X325255*
X325880Y453699*
X318380Y450261D02*
X320880D01*
X318693Y452449*
X318380Y453074*
X318693Y453699*
X319317Y454011*
X320255*
X320880Y453699*
X332750Y285261D02*
Y289011D01*
X330563*
X329937Y288699*
X329625Y288074*
X329937Y287449*
X330563Y287137*
X332750*
X330563D02*
X329625Y285261D01*
X327437Y285574D02*
X326813Y285261D01*
X326187*
X325563Y285574*
X325250Y286199*
X325563Y286824*
X326187Y287137*
X326813*
X326187D02*
X325563Y287449D01*
X325250Y288074*
X325563Y288699*
X326187Y289011*
X326813*
X327437Y288699*
X322750Y286199D02*
X322437Y286824D01*
X321813Y287137*
X321187*
X320563Y286824*
X320250Y286199*
X320563Y285574*
X321187Y285261*
X321813*
X322437Y285574*
X322750Y286199*
Y287137*
X322437Y288074*
X321813Y288699*
X321187Y289011*
X332757Y454951D02*
X316757D01*
Y461951*
X332757*
Y454951*
X333380Y552574D02*
X317380D01*
Y559574*
X333380*
Y552574*
X335269Y276183D02*
X319269D01*
Y283183*
X335269*
Y276183*
X338067Y475574D02*
X341817D01*
Y477761*
X341505Y478387*
X340880Y478699*
X340255Y478387*
X339943Y477761*
Y475574*
Y477761D02*
X338067Y478699D01*
Y482137D02*
X341817D01*
X339317Y480574*
Y483074*
X338067Y486511D02*
X338380Y487137D01*
X339005Y487761*
X339943Y488074*
X340880*
X341505Y487761*
X341817Y487137*
Y486511*
X341505Y485887*
X340880Y485574*
X340255Y485887*
X339943Y486511*
Y487137*
X340255Y487761*
X340880Y488074*
X338130Y312700D02*
Y328700D01*
X345130*
Y312700*
X338130*
X339943Y301826D02*
X339630Y301513D01*
X339317Y300888*
Y299950*
X339630Y299326*
X339943Y299013*
X340567Y298700*
X341817*
X342443Y299013*
X342755Y299326*
X343067Y299950*
Y300888*
X342755Y301513*
X342443Y301826*
X339317Y304326D02*
Y305576D01*
Y304950D02*
X343067D01*
X342443Y304326*
X339630Y309013D02*
X339317Y309638D01*
Y310263*
X339630Y310888*
X340255Y311200*
X342130*
X342755Y310888*
X343067Y310263*
Y309638*
X342755Y309013*
X342130Y308700*
X340255*
X339630Y309013*
X342755Y310888*
X336505Y343387D02*
X336817Y343074D01*
X337443Y342761*
X338380*
X339005Y343074*
X339317Y343387*
X339630Y344011*
Y345261*
X339317Y345887*
X339005Y346199*
X338380Y346511*
X337443*
X336817Y346199*
X336505Y345887*
X334005Y342761D02*
X332755D01*
X333380D02*
Y346511D01*
X334005Y345887*
X327130Y342761D02*
X329630D01*
X327443Y344949*
X327130Y345574*
X327443Y346199*
X328067Y346511*
X329005*
X329630Y346199*
X336505Y353387D02*
X336817Y353074D01*
X337443Y352761*
X338380*
X339005Y353074*
X339317Y353387*
X339630Y354011*
Y355261*
X339317Y355887*
X339005Y356199*
X338380Y356511*
X337443*
X336817Y356199*
X336505Y355887*
X334005Y352761D02*
X332755D01*
X333380D02*
Y356511D01*
X334005Y355887*
X329005Y352761D02*
X327755D01*
X328380D02*
Y356511D01*
X329005Y355887*
X345880Y519074D02*
Y535074D01*
X352880*
Y519074*
X345880*
X348130Y312700D02*
Y328700D01*
X355130*
Y312700*
X348130*
X349943Y305576D02*
X349630Y305263D01*
X349317Y304638*
Y303700*
X349630Y303076*
X349943Y302763*
X350567Y302450*
X351817*
X352443Y302763*
X352755Y303076*
X353067Y303700*
Y304638*
X352755Y305263*
X352443Y305576*
X349317Y308388D02*
X349630Y309013D01*
X350255Y309638*
X351193Y309950*
X352130*
X352755Y309638*
X353067Y309013*
Y308388*
X352755Y307763*
X352130Y307450*
X351505Y307763*
X351193Y308388*
Y309013*
X351505Y309638*
X352130Y309950*
X348880Y414074D02*
X364880D01*
Y407074*
X348880*
Y414074*
X349880Y489574D02*
Y473574D01*
X342880*
Y489574*
X349880*
X351709Y445074D02*
Y461074D01*
X358709*
Y445074*
X351709*
X349005Y537137D02*
X349317Y536824D01*
X349943Y536511*
X350880*
X351505Y536824*
X351817Y537137*
X352130Y537761*
Y539011*
X351817Y539637*
X351505Y539949*
X350880Y540261*
X349943*
X349317Y539949*
X349005Y539637*
X346505Y536511D02*
X345255D01*
X345880D02*
Y540261D01*
X346505Y539637*
X352125Y362137D02*
X352437Y361824D01*
X353063Y361511*
X354000*
X354625Y361824*
X354937Y362137*
X355250Y362761*
Y364011*
X354937Y364637*
X354625Y364949*
X354000Y365261*
X353063*
X352437Y364949*
X352125Y364637*
X349937Y361824D02*
X349313Y361511D01*
X348687*
X348063Y361824*
X347750Y362449*
X348063Y363074*
X348687Y363387*
X349313*
X348687D02*
X348063Y363699D01*
X347750Y364324*
X348063Y364949*
X348687Y365261*
X349313*
X349937Y364949*
X342750Y361511D02*
X345250D01*
X343063Y363699*
X342750Y364324*
X343063Y364949*
X343687Y365261*
X344625*
X345250Y364949*
X355874Y367278D02*
X339874D01*
Y374278*
X355874*
Y367278*
X356488Y519074D02*
Y535074D01*
X363488*
Y519074*
X356488*
X359433Y307048D02*
X363183D01*
Y309235*
X362870Y309860*
X362245Y310173*
X361620Y309860*
X361308Y309235*
Y307048*
Y309235D02*
X359433Y310173D01*
X359745Y312048D02*
X359433Y312673D01*
Y313610*
X359745Y314235*
X360370Y314548*
X360683*
X361308Y314235*
X361620Y313610*
Y312048*
X363183*
Y314548*
X359745Y317360D02*
X359433Y317985D01*
Y318610*
X359745Y319235*
X360370Y319548*
X362245*
X362870Y319235*
X363183Y318610*
Y317985*
X362870Y317360*
X362245Y317048*
X360370*
X359745Y317360*
X362870Y319235*
X360746Y489574D02*
Y473574D01*
X353746*
Y489574*
X360746*
X363308Y478699D02*
X362996Y478387D01*
X362683Y477761*
Y476824*
X362996Y476199*
X363308Y475887*
X363933Y475574*
X365183*
X365808Y475887*
X366121Y476199*
X366433Y476824*
Y477761*
X366121Y478387*
X365808Y478699*
X362683Y481199D02*
Y482449D01*
Y481824D02*
X366433D01*
X365808Y481199*
X362683Y487137D02*
X366433D01*
X363933Y485574*
Y488074*
X359625Y463387D02*
X359937Y463074D01*
X360563Y462761*
X361500*
X362125Y463074*
X362437Y463387*
X362750Y464011*
Y465261*
X362437Y465887*
X362125Y466199*
X361500Y466511*
X360563*
X359937Y466199*
X359625Y465887*
X355250Y462761D02*
X357750D01*
X355563Y464949*
X355250Y465574*
X355563Y466199*
X356187Y466511*
X357125*
X357750Y466199*
X351187Y462761D02*
Y466511D01*
X352750Y464011*
X350250*
X360255Y415887D02*
X360567Y415574D01*
X361193Y415261*
X362130*
X362755Y415574*
X363067Y415887*
X363380Y416511*
Y417761*
X363067Y418387*
X362755Y418699*
X362130Y419011*
X361193*
X360567Y418699*
X360255Y418387*
X358067Y415574D02*
X357443Y415261D01*
X356817*
X356193Y415574*
X355880Y416199*
X356193Y416824*
X356817Y417137*
X357443*
X356817D02*
X356193Y417449D01*
X355880Y418074*
X356193Y418699*
X356817Y419011*
X357443*
X358067Y418699*
X353067Y415574D02*
X352443Y415261D01*
X351817*
X351193Y415574*
X350880Y416199*
X351193Y416824*
X351817Y417137*
X352443*
X351817D02*
X351193Y417449D01*
X350880Y418074*
X351193Y418699*
X351817Y419011*
X352443*
X353067Y418699*
X363380Y536511D02*
Y540261D01*
X361193*
X360567Y539949*
X360255Y539324*
X360567Y538699*
X361193Y538387*
X363380*
X361193D02*
X360255Y536511D01*
X357755D02*
X356505D01*
X357130D02*
Y540261D01*
X357755Y539637*
X364494Y338165D02*
Y322165D01*
X357494*
Y338165*
X364494*
X365541Y376598D02*
Y404944D01*
X348219*
Y376598*
X365541*
X366817Y388584D02*
X368693D01*
X370567Y387021*
X368693Y388584D02*
X370567Y390146D01*
X366817Y394521D02*
Y392021D01*
X369005Y394209*
X369630Y394521*
X370255Y394209*
X370567Y393584*
Y392646*
X370255Y392021*
X0Y0D02*
M02*
